%TF.GenerationSoftware,KiCad,Pcbnew,7.0.1*%
%TF.CreationDate,2023-04-23T17:26:01-05:00*%
%TF.ProjectId,hw4,6877342e-6b69-4636-9164-5f7063625858,rev?*%
%TF.SameCoordinates,Original*%
%TF.FileFunction,Legend,Top*%
%TF.FilePolarity,Positive*%
%FSLAX46Y46*%
G04 Gerber Fmt 4.6, Leading zero omitted, Abs format (unit mm)*
G04 Created by KiCad (PCBNEW 7.0.1) date 2023-04-23 17:26:01*
%MOMM*%
%LPD*%
G01*
G04 APERTURE LIST*
%ADD10C,0.150000*%
%ADD11C,0.100000*%
%ADD12C,0.120000*%
%ADD13C,0.400000*%
%TA.AperFunction,Profile*%
%ADD14C,0.100000*%
%TD*%
G04 APERTURE END LIST*
D10*
%TO.C,D2*%
X132122619Y-85828094D02*
X131122619Y-85828094D01*
X131122619Y-85828094D02*
X131122619Y-85589999D01*
X131122619Y-85589999D02*
X131170238Y-85447142D01*
X131170238Y-85447142D02*
X131265476Y-85351904D01*
X131265476Y-85351904D02*
X131360714Y-85304285D01*
X131360714Y-85304285D02*
X131551190Y-85256666D01*
X131551190Y-85256666D02*
X131694047Y-85256666D01*
X131694047Y-85256666D02*
X131884523Y-85304285D01*
X131884523Y-85304285D02*
X131979761Y-85351904D01*
X131979761Y-85351904D02*
X132075000Y-85447142D01*
X132075000Y-85447142D02*
X132122619Y-85589999D01*
X132122619Y-85589999D02*
X132122619Y-85828094D01*
X131217857Y-84875713D02*
X131170238Y-84828094D01*
X131170238Y-84828094D02*
X131122619Y-84732856D01*
X131122619Y-84732856D02*
X131122619Y-84494761D01*
X131122619Y-84494761D02*
X131170238Y-84399523D01*
X131170238Y-84399523D02*
X131217857Y-84351904D01*
X131217857Y-84351904D02*
X131313095Y-84304285D01*
X131313095Y-84304285D02*
X131408333Y-84304285D01*
X131408333Y-84304285D02*
X131551190Y-84351904D01*
X131551190Y-84351904D02*
X132122619Y-84923332D01*
X132122619Y-84923332D02*
X132122619Y-84304285D01*
%TO.C,D1*%
X139742619Y-85828094D02*
X138742619Y-85828094D01*
X138742619Y-85828094D02*
X138742619Y-85589999D01*
X138742619Y-85589999D02*
X138790238Y-85447142D01*
X138790238Y-85447142D02*
X138885476Y-85351904D01*
X138885476Y-85351904D02*
X138980714Y-85304285D01*
X138980714Y-85304285D02*
X139171190Y-85256666D01*
X139171190Y-85256666D02*
X139314047Y-85256666D01*
X139314047Y-85256666D02*
X139504523Y-85304285D01*
X139504523Y-85304285D02*
X139599761Y-85351904D01*
X139599761Y-85351904D02*
X139695000Y-85447142D01*
X139695000Y-85447142D02*
X139742619Y-85589999D01*
X139742619Y-85589999D02*
X139742619Y-85828094D01*
X139742619Y-84304285D02*
X139742619Y-84875713D01*
X139742619Y-84589999D02*
X138742619Y-84589999D01*
X138742619Y-84589999D02*
X138885476Y-84685237D01*
X138885476Y-84685237D02*
X138980714Y-84780475D01*
X138980714Y-84780475D02*
X139028333Y-84875713D01*
%TO.C,U4*%
X101238095Y-60192619D02*
X101238095Y-61002142D01*
X101238095Y-61002142D02*
X101285714Y-61097380D01*
X101285714Y-61097380D02*
X101333333Y-61145000D01*
X101333333Y-61145000D02*
X101428571Y-61192619D01*
X101428571Y-61192619D02*
X101619047Y-61192619D01*
X101619047Y-61192619D02*
X101714285Y-61145000D01*
X101714285Y-61145000D02*
X101761904Y-61097380D01*
X101761904Y-61097380D02*
X101809523Y-61002142D01*
X101809523Y-61002142D02*
X101809523Y-60192619D01*
X102714285Y-60525952D02*
X102714285Y-61192619D01*
X102476190Y-60145000D02*
X102238095Y-60859285D01*
X102238095Y-60859285D02*
X102857142Y-60859285D01*
%TO.C,C5*%
X114907380Y-90356666D02*
X114955000Y-90404285D01*
X114955000Y-90404285D02*
X115002619Y-90547142D01*
X115002619Y-90547142D02*
X115002619Y-90642380D01*
X115002619Y-90642380D02*
X114955000Y-90785237D01*
X114955000Y-90785237D02*
X114859761Y-90880475D01*
X114859761Y-90880475D02*
X114764523Y-90928094D01*
X114764523Y-90928094D02*
X114574047Y-90975713D01*
X114574047Y-90975713D02*
X114431190Y-90975713D01*
X114431190Y-90975713D02*
X114240714Y-90928094D01*
X114240714Y-90928094D02*
X114145476Y-90880475D01*
X114145476Y-90880475D02*
X114050238Y-90785237D01*
X114050238Y-90785237D02*
X114002619Y-90642380D01*
X114002619Y-90642380D02*
X114002619Y-90547142D01*
X114002619Y-90547142D02*
X114050238Y-90404285D01*
X114050238Y-90404285D02*
X114097857Y-90356666D01*
X114002619Y-89451904D02*
X114002619Y-89928094D01*
X114002619Y-89928094D02*
X114478809Y-89975713D01*
X114478809Y-89975713D02*
X114431190Y-89928094D01*
X114431190Y-89928094D02*
X114383571Y-89832856D01*
X114383571Y-89832856D02*
X114383571Y-89594761D01*
X114383571Y-89594761D02*
X114431190Y-89499523D01*
X114431190Y-89499523D02*
X114478809Y-89451904D01*
X114478809Y-89451904D02*
X114574047Y-89404285D01*
X114574047Y-89404285D02*
X114812142Y-89404285D01*
X114812142Y-89404285D02*
X114907380Y-89451904D01*
X114907380Y-89451904D02*
X114955000Y-89499523D01*
X114955000Y-89499523D02*
X115002619Y-89594761D01*
X115002619Y-89594761D02*
X115002619Y-89832856D01*
X115002619Y-89832856D02*
X114955000Y-89928094D01*
X114955000Y-89928094D02*
X114907380Y-89975713D01*
%TO.C,ADAFRUITFriend1*%
X109166904Y-59363809D02*
X109166904Y-58887619D01*
X109452619Y-59459047D02*
X108452619Y-59125714D01*
X108452619Y-59125714D02*
X109452619Y-58792381D01*
X109452619Y-58459047D02*
X108452619Y-58459047D01*
X108452619Y-58459047D02*
X108452619Y-58220952D01*
X108452619Y-58220952D02*
X108500238Y-58078095D01*
X108500238Y-58078095D02*
X108595476Y-57982857D01*
X108595476Y-57982857D02*
X108690714Y-57935238D01*
X108690714Y-57935238D02*
X108881190Y-57887619D01*
X108881190Y-57887619D02*
X109024047Y-57887619D01*
X109024047Y-57887619D02*
X109214523Y-57935238D01*
X109214523Y-57935238D02*
X109309761Y-57982857D01*
X109309761Y-57982857D02*
X109405000Y-58078095D01*
X109405000Y-58078095D02*
X109452619Y-58220952D01*
X109452619Y-58220952D02*
X109452619Y-58459047D01*
X109166904Y-57506666D02*
X109166904Y-57030476D01*
X109452619Y-57601904D02*
X108452619Y-57268571D01*
X108452619Y-57268571D02*
X109452619Y-56935238D01*
X108928809Y-56268571D02*
X108928809Y-56601904D01*
X109452619Y-56601904D02*
X108452619Y-56601904D01*
X108452619Y-56601904D02*
X108452619Y-56125714D01*
X109452619Y-55173333D02*
X108976428Y-55506666D01*
X109452619Y-55744761D02*
X108452619Y-55744761D01*
X108452619Y-55744761D02*
X108452619Y-55363809D01*
X108452619Y-55363809D02*
X108500238Y-55268571D01*
X108500238Y-55268571D02*
X108547857Y-55220952D01*
X108547857Y-55220952D02*
X108643095Y-55173333D01*
X108643095Y-55173333D02*
X108785952Y-55173333D01*
X108785952Y-55173333D02*
X108881190Y-55220952D01*
X108881190Y-55220952D02*
X108928809Y-55268571D01*
X108928809Y-55268571D02*
X108976428Y-55363809D01*
X108976428Y-55363809D02*
X108976428Y-55744761D01*
X108452619Y-54744761D02*
X109262142Y-54744761D01*
X109262142Y-54744761D02*
X109357380Y-54697142D01*
X109357380Y-54697142D02*
X109405000Y-54649523D01*
X109405000Y-54649523D02*
X109452619Y-54554285D01*
X109452619Y-54554285D02*
X109452619Y-54363809D01*
X109452619Y-54363809D02*
X109405000Y-54268571D01*
X109405000Y-54268571D02*
X109357380Y-54220952D01*
X109357380Y-54220952D02*
X109262142Y-54173333D01*
X109262142Y-54173333D02*
X108452619Y-54173333D01*
X109452619Y-53697142D02*
X108452619Y-53697142D01*
X108452619Y-53363809D02*
X108452619Y-52792381D01*
X109452619Y-53078095D02*
X108452619Y-53078095D01*
X108928809Y-52125714D02*
X108928809Y-52459047D01*
X109452619Y-52459047D02*
X108452619Y-52459047D01*
X108452619Y-52459047D02*
X108452619Y-51982857D01*
X109452619Y-51601904D02*
X108785952Y-51601904D01*
X108976428Y-51601904D02*
X108881190Y-51554285D01*
X108881190Y-51554285D02*
X108833571Y-51506666D01*
X108833571Y-51506666D02*
X108785952Y-51411428D01*
X108785952Y-51411428D02*
X108785952Y-51316190D01*
X109452619Y-50982856D02*
X108785952Y-50982856D01*
X108452619Y-50982856D02*
X108500238Y-51030475D01*
X108500238Y-51030475D02*
X108547857Y-50982856D01*
X108547857Y-50982856D02*
X108500238Y-50935237D01*
X108500238Y-50935237D02*
X108452619Y-50982856D01*
X108452619Y-50982856D02*
X108547857Y-50982856D01*
X109405000Y-50125714D02*
X109452619Y-50220952D01*
X109452619Y-50220952D02*
X109452619Y-50411428D01*
X109452619Y-50411428D02*
X109405000Y-50506666D01*
X109405000Y-50506666D02*
X109309761Y-50554285D01*
X109309761Y-50554285D02*
X108928809Y-50554285D01*
X108928809Y-50554285D02*
X108833571Y-50506666D01*
X108833571Y-50506666D02*
X108785952Y-50411428D01*
X108785952Y-50411428D02*
X108785952Y-50220952D01*
X108785952Y-50220952D02*
X108833571Y-50125714D01*
X108833571Y-50125714D02*
X108928809Y-50078095D01*
X108928809Y-50078095D02*
X109024047Y-50078095D01*
X109024047Y-50078095D02*
X109119285Y-50554285D01*
X108785952Y-49649523D02*
X109452619Y-49649523D01*
X108881190Y-49649523D02*
X108833571Y-49601904D01*
X108833571Y-49601904D02*
X108785952Y-49506666D01*
X108785952Y-49506666D02*
X108785952Y-49363809D01*
X108785952Y-49363809D02*
X108833571Y-49268571D01*
X108833571Y-49268571D02*
X108928809Y-49220952D01*
X108928809Y-49220952D02*
X109452619Y-49220952D01*
X109452619Y-48316190D02*
X108452619Y-48316190D01*
X109405000Y-48316190D02*
X109452619Y-48411428D01*
X109452619Y-48411428D02*
X109452619Y-48601904D01*
X109452619Y-48601904D02*
X109405000Y-48697142D01*
X109405000Y-48697142D02*
X109357380Y-48744761D01*
X109357380Y-48744761D02*
X109262142Y-48792380D01*
X109262142Y-48792380D02*
X108976428Y-48792380D01*
X108976428Y-48792380D02*
X108881190Y-48744761D01*
X108881190Y-48744761D02*
X108833571Y-48697142D01*
X108833571Y-48697142D02*
X108785952Y-48601904D01*
X108785952Y-48601904D02*
X108785952Y-48411428D01*
X108785952Y-48411428D02*
X108833571Y-48316190D01*
X109452619Y-47316190D02*
X109452619Y-47887618D01*
X109452619Y-47601904D02*
X108452619Y-47601904D01*
X108452619Y-47601904D02*
X108595476Y-47697142D01*
X108595476Y-47697142D02*
X108690714Y-47792380D01*
X108690714Y-47792380D02*
X108738333Y-47887618D01*
D11*
%TO.C,SW3*%
X133326667Y-46135000D02*
X133469524Y-46182619D01*
X133469524Y-46182619D02*
X133707619Y-46182619D01*
X133707619Y-46182619D02*
X133802857Y-46135000D01*
X133802857Y-46135000D02*
X133850476Y-46087380D01*
X133850476Y-46087380D02*
X133898095Y-45992142D01*
X133898095Y-45992142D02*
X133898095Y-45896904D01*
X133898095Y-45896904D02*
X133850476Y-45801666D01*
X133850476Y-45801666D02*
X133802857Y-45754047D01*
X133802857Y-45754047D02*
X133707619Y-45706428D01*
X133707619Y-45706428D02*
X133517143Y-45658809D01*
X133517143Y-45658809D02*
X133421905Y-45611190D01*
X133421905Y-45611190D02*
X133374286Y-45563571D01*
X133374286Y-45563571D02*
X133326667Y-45468333D01*
X133326667Y-45468333D02*
X133326667Y-45373095D01*
X133326667Y-45373095D02*
X133374286Y-45277857D01*
X133374286Y-45277857D02*
X133421905Y-45230238D01*
X133421905Y-45230238D02*
X133517143Y-45182619D01*
X133517143Y-45182619D02*
X133755238Y-45182619D01*
X133755238Y-45182619D02*
X133898095Y-45230238D01*
X134231429Y-45182619D02*
X134469524Y-46182619D01*
X134469524Y-46182619D02*
X134660000Y-45468333D01*
X134660000Y-45468333D02*
X134850476Y-46182619D01*
X134850476Y-46182619D02*
X135088572Y-45182619D01*
X135374286Y-45182619D02*
X135993333Y-45182619D01*
X135993333Y-45182619D02*
X135660000Y-45563571D01*
X135660000Y-45563571D02*
X135802857Y-45563571D01*
X135802857Y-45563571D02*
X135898095Y-45611190D01*
X135898095Y-45611190D02*
X135945714Y-45658809D01*
X135945714Y-45658809D02*
X135993333Y-45754047D01*
X135993333Y-45754047D02*
X135993333Y-45992142D01*
X135993333Y-45992142D02*
X135945714Y-46087380D01*
X135945714Y-46087380D02*
X135898095Y-46135000D01*
X135898095Y-46135000D02*
X135802857Y-46182619D01*
X135802857Y-46182619D02*
X135517143Y-46182619D01*
X135517143Y-46182619D02*
X135421905Y-46135000D01*
X135421905Y-46135000D02*
X135374286Y-46087380D01*
D10*
%TO.C,R2*%
X112863333Y-66672619D02*
X112530000Y-66196428D01*
X112291905Y-66672619D02*
X112291905Y-65672619D01*
X112291905Y-65672619D02*
X112672857Y-65672619D01*
X112672857Y-65672619D02*
X112768095Y-65720238D01*
X112768095Y-65720238D02*
X112815714Y-65767857D01*
X112815714Y-65767857D02*
X112863333Y-65863095D01*
X112863333Y-65863095D02*
X112863333Y-66005952D01*
X112863333Y-66005952D02*
X112815714Y-66101190D01*
X112815714Y-66101190D02*
X112768095Y-66148809D01*
X112768095Y-66148809D02*
X112672857Y-66196428D01*
X112672857Y-66196428D02*
X112291905Y-66196428D01*
X113244286Y-65767857D02*
X113291905Y-65720238D01*
X113291905Y-65720238D02*
X113387143Y-65672619D01*
X113387143Y-65672619D02*
X113625238Y-65672619D01*
X113625238Y-65672619D02*
X113720476Y-65720238D01*
X113720476Y-65720238D02*
X113768095Y-65767857D01*
X113768095Y-65767857D02*
X113815714Y-65863095D01*
X113815714Y-65863095D02*
X113815714Y-65958333D01*
X113815714Y-65958333D02*
X113768095Y-66101190D01*
X113768095Y-66101190D02*
X113196667Y-66672619D01*
X113196667Y-66672619D02*
X113815714Y-66672619D01*
%TO.C,U3*%
X146558095Y-62732619D02*
X146558095Y-63542142D01*
X146558095Y-63542142D02*
X146605714Y-63637380D01*
X146605714Y-63637380D02*
X146653333Y-63685000D01*
X146653333Y-63685000D02*
X146748571Y-63732619D01*
X146748571Y-63732619D02*
X146939047Y-63732619D01*
X146939047Y-63732619D02*
X147034285Y-63685000D01*
X147034285Y-63685000D02*
X147081904Y-63637380D01*
X147081904Y-63637380D02*
X147129523Y-63542142D01*
X147129523Y-63542142D02*
X147129523Y-62732619D01*
X147510476Y-62732619D02*
X148129523Y-62732619D01*
X148129523Y-62732619D02*
X147796190Y-63113571D01*
X147796190Y-63113571D02*
X147939047Y-63113571D01*
X147939047Y-63113571D02*
X148034285Y-63161190D01*
X148034285Y-63161190D02*
X148081904Y-63208809D01*
X148081904Y-63208809D02*
X148129523Y-63304047D01*
X148129523Y-63304047D02*
X148129523Y-63542142D01*
X148129523Y-63542142D02*
X148081904Y-63637380D01*
X148081904Y-63637380D02*
X148034285Y-63685000D01*
X148034285Y-63685000D02*
X147939047Y-63732619D01*
X147939047Y-63732619D02*
X147653333Y-63732619D01*
X147653333Y-63732619D02*
X147558095Y-63685000D01*
X147558095Y-63685000D02*
X147510476Y-63637380D01*
%TO.C,SW1*%
X105346667Y-89085000D02*
X105489524Y-89132619D01*
X105489524Y-89132619D02*
X105727619Y-89132619D01*
X105727619Y-89132619D02*
X105822857Y-89085000D01*
X105822857Y-89085000D02*
X105870476Y-89037380D01*
X105870476Y-89037380D02*
X105918095Y-88942142D01*
X105918095Y-88942142D02*
X105918095Y-88846904D01*
X105918095Y-88846904D02*
X105870476Y-88751666D01*
X105870476Y-88751666D02*
X105822857Y-88704047D01*
X105822857Y-88704047D02*
X105727619Y-88656428D01*
X105727619Y-88656428D02*
X105537143Y-88608809D01*
X105537143Y-88608809D02*
X105441905Y-88561190D01*
X105441905Y-88561190D02*
X105394286Y-88513571D01*
X105394286Y-88513571D02*
X105346667Y-88418333D01*
X105346667Y-88418333D02*
X105346667Y-88323095D01*
X105346667Y-88323095D02*
X105394286Y-88227857D01*
X105394286Y-88227857D02*
X105441905Y-88180238D01*
X105441905Y-88180238D02*
X105537143Y-88132619D01*
X105537143Y-88132619D02*
X105775238Y-88132619D01*
X105775238Y-88132619D02*
X105918095Y-88180238D01*
X106251429Y-88132619D02*
X106489524Y-89132619D01*
X106489524Y-89132619D02*
X106680000Y-88418333D01*
X106680000Y-88418333D02*
X106870476Y-89132619D01*
X106870476Y-89132619D02*
X107108572Y-88132619D01*
X108013333Y-89132619D02*
X107441905Y-89132619D01*
X107727619Y-89132619D02*
X107727619Y-88132619D01*
X107727619Y-88132619D02*
X107632381Y-88275476D01*
X107632381Y-88275476D02*
X107537143Y-88370714D01*
X107537143Y-88370714D02*
X107441905Y-88418333D01*
%TO.C,U5*%
X100832619Y-54101904D02*
X101642142Y-54101904D01*
X101642142Y-54101904D02*
X101737380Y-54054285D01*
X101737380Y-54054285D02*
X101785000Y-54006666D01*
X101785000Y-54006666D02*
X101832619Y-53911428D01*
X101832619Y-53911428D02*
X101832619Y-53720952D01*
X101832619Y-53720952D02*
X101785000Y-53625714D01*
X101785000Y-53625714D02*
X101737380Y-53578095D01*
X101737380Y-53578095D02*
X101642142Y-53530476D01*
X101642142Y-53530476D02*
X100832619Y-53530476D01*
X100832619Y-52578095D02*
X100832619Y-53054285D01*
X100832619Y-53054285D02*
X101308809Y-53101904D01*
X101308809Y-53101904D02*
X101261190Y-53054285D01*
X101261190Y-53054285D02*
X101213571Y-52959047D01*
X101213571Y-52959047D02*
X101213571Y-52720952D01*
X101213571Y-52720952D02*
X101261190Y-52625714D01*
X101261190Y-52625714D02*
X101308809Y-52578095D01*
X101308809Y-52578095D02*
X101404047Y-52530476D01*
X101404047Y-52530476D02*
X101642142Y-52530476D01*
X101642142Y-52530476D02*
X101737380Y-52578095D01*
X101737380Y-52578095D02*
X101785000Y-52625714D01*
X101785000Y-52625714D02*
X101832619Y-52720952D01*
X101832619Y-52720952D02*
X101832619Y-52959047D01*
X101832619Y-52959047D02*
X101785000Y-53054285D01*
X101785000Y-53054285D02*
X101737380Y-53101904D01*
%TO.C,U2*%
X124968095Y-58092619D02*
X124968095Y-58902142D01*
X124968095Y-58902142D02*
X125015714Y-58997380D01*
X125015714Y-58997380D02*
X125063333Y-59045000D01*
X125063333Y-59045000D02*
X125158571Y-59092619D01*
X125158571Y-59092619D02*
X125349047Y-59092619D01*
X125349047Y-59092619D02*
X125444285Y-59045000D01*
X125444285Y-59045000D02*
X125491904Y-58997380D01*
X125491904Y-58997380D02*
X125539523Y-58902142D01*
X125539523Y-58902142D02*
X125539523Y-58092619D01*
X125968095Y-58187857D02*
X126015714Y-58140238D01*
X126015714Y-58140238D02*
X126110952Y-58092619D01*
X126110952Y-58092619D02*
X126349047Y-58092619D01*
X126349047Y-58092619D02*
X126444285Y-58140238D01*
X126444285Y-58140238D02*
X126491904Y-58187857D01*
X126491904Y-58187857D02*
X126539523Y-58283095D01*
X126539523Y-58283095D02*
X126539523Y-58378333D01*
X126539523Y-58378333D02*
X126491904Y-58521190D01*
X126491904Y-58521190D02*
X125920476Y-59092619D01*
X125920476Y-59092619D02*
X126539523Y-59092619D01*
%TO.C,C1*%
X134677380Y-76406666D02*
X134725000Y-76454285D01*
X134725000Y-76454285D02*
X134772619Y-76597142D01*
X134772619Y-76597142D02*
X134772619Y-76692380D01*
X134772619Y-76692380D02*
X134725000Y-76835237D01*
X134725000Y-76835237D02*
X134629761Y-76930475D01*
X134629761Y-76930475D02*
X134534523Y-76978094D01*
X134534523Y-76978094D02*
X134344047Y-77025713D01*
X134344047Y-77025713D02*
X134201190Y-77025713D01*
X134201190Y-77025713D02*
X134010714Y-76978094D01*
X134010714Y-76978094D02*
X133915476Y-76930475D01*
X133915476Y-76930475D02*
X133820238Y-76835237D01*
X133820238Y-76835237D02*
X133772619Y-76692380D01*
X133772619Y-76692380D02*
X133772619Y-76597142D01*
X133772619Y-76597142D02*
X133820238Y-76454285D01*
X133820238Y-76454285D02*
X133867857Y-76406666D01*
X134772619Y-75454285D02*
X134772619Y-76025713D01*
X134772619Y-75739999D02*
X133772619Y-75739999D01*
X133772619Y-75739999D02*
X133915476Y-75835237D01*
X133915476Y-75835237D02*
X134010714Y-75930475D01*
X134010714Y-75930475D02*
X134058333Y-76025713D01*
%TO.C,C2*%
X106553333Y-55937380D02*
X106505714Y-55985000D01*
X106505714Y-55985000D02*
X106362857Y-56032619D01*
X106362857Y-56032619D02*
X106267619Y-56032619D01*
X106267619Y-56032619D02*
X106124762Y-55985000D01*
X106124762Y-55985000D02*
X106029524Y-55889761D01*
X106029524Y-55889761D02*
X105981905Y-55794523D01*
X105981905Y-55794523D02*
X105934286Y-55604047D01*
X105934286Y-55604047D02*
X105934286Y-55461190D01*
X105934286Y-55461190D02*
X105981905Y-55270714D01*
X105981905Y-55270714D02*
X106029524Y-55175476D01*
X106029524Y-55175476D02*
X106124762Y-55080238D01*
X106124762Y-55080238D02*
X106267619Y-55032619D01*
X106267619Y-55032619D02*
X106362857Y-55032619D01*
X106362857Y-55032619D02*
X106505714Y-55080238D01*
X106505714Y-55080238D02*
X106553333Y-55127857D01*
X106934286Y-55127857D02*
X106981905Y-55080238D01*
X106981905Y-55080238D02*
X107077143Y-55032619D01*
X107077143Y-55032619D02*
X107315238Y-55032619D01*
X107315238Y-55032619D02*
X107410476Y-55080238D01*
X107410476Y-55080238D02*
X107458095Y-55127857D01*
X107458095Y-55127857D02*
X107505714Y-55223095D01*
X107505714Y-55223095D02*
X107505714Y-55318333D01*
X107505714Y-55318333D02*
X107458095Y-55461190D01*
X107458095Y-55461190D02*
X106886667Y-56032619D01*
X106886667Y-56032619D02*
X107505714Y-56032619D01*
%TO.C,R4*%
X112863333Y-76832619D02*
X112530000Y-76356428D01*
X112291905Y-76832619D02*
X112291905Y-75832619D01*
X112291905Y-75832619D02*
X112672857Y-75832619D01*
X112672857Y-75832619D02*
X112768095Y-75880238D01*
X112768095Y-75880238D02*
X112815714Y-75927857D01*
X112815714Y-75927857D02*
X112863333Y-76023095D01*
X112863333Y-76023095D02*
X112863333Y-76165952D01*
X112863333Y-76165952D02*
X112815714Y-76261190D01*
X112815714Y-76261190D02*
X112768095Y-76308809D01*
X112768095Y-76308809D02*
X112672857Y-76356428D01*
X112672857Y-76356428D02*
X112291905Y-76356428D01*
X113720476Y-76165952D02*
X113720476Y-76832619D01*
X113482381Y-75785000D02*
X113244286Y-76499285D01*
X113244286Y-76499285D02*
X113863333Y-76499285D01*
%TO.C,C4*%
X137033333Y-88957380D02*
X136985714Y-89005000D01*
X136985714Y-89005000D02*
X136842857Y-89052619D01*
X136842857Y-89052619D02*
X136747619Y-89052619D01*
X136747619Y-89052619D02*
X136604762Y-89005000D01*
X136604762Y-89005000D02*
X136509524Y-88909761D01*
X136509524Y-88909761D02*
X136461905Y-88814523D01*
X136461905Y-88814523D02*
X136414286Y-88624047D01*
X136414286Y-88624047D02*
X136414286Y-88481190D01*
X136414286Y-88481190D02*
X136461905Y-88290714D01*
X136461905Y-88290714D02*
X136509524Y-88195476D01*
X136509524Y-88195476D02*
X136604762Y-88100238D01*
X136604762Y-88100238D02*
X136747619Y-88052619D01*
X136747619Y-88052619D02*
X136842857Y-88052619D01*
X136842857Y-88052619D02*
X136985714Y-88100238D01*
X136985714Y-88100238D02*
X137033333Y-88147857D01*
X137890476Y-88385952D02*
X137890476Y-89052619D01*
X137652381Y-88005000D02*
X137414286Y-88719285D01*
X137414286Y-88719285D02*
X138033333Y-88719285D01*
%TO.C,R3*%
X112863333Y-71752619D02*
X112530000Y-71276428D01*
X112291905Y-71752619D02*
X112291905Y-70752619D01*
X112291905Y-70752619D02*
X112672857Y-70752619D01*
X112672857Y-70752619D02*
X112768095Y-70800238D01*
X112768095Y-70800238D02*
X112815714Y-70847857D01*
X112815714Y-70847857D02*
X112863333Y-70943095D01*
X112863333Y-70943095D02*
X112863333Y-71085952D01*
X112863333Y-71085952D02*
X112815714Y-71181190D01*
X112815714Y-71181190D02*
X112768095Y-71228809D01*
X112768095Y-71228809D02*
X112672857Y-71276428D01*
X112672857Y-71276428D02*
X112291905Y-71276428D01*
X113196667Y-70752619D02*
X113815714Y-70752619D01*
X113815714Y-70752619D02*
X113482381Y-71133571D01*
X113482381Y-71133571D02*
X113625238Y-71133571D01*
X113625238Y-71133571D02*
X113720476Y-71181190D01*
X113720476Y-71181190D02*
X113768095Y-71228809D01*
X113768095Y-71228809D02*
X113815714Y-71324047D01*
X113815714Y-71324047D02*
X113815714Y-71562142D01*
X113815714Y-71562142D02*
X113768095Y-71657380D01*
X113768095Y-71657380D02*
X113720476Y-71705000D01*
X113720476Y-71705000D02*
X113625238Y-71752619D01*
X113625238Y-71752619D02*
X113339524Y-71752619D01*
X113339524Y-71752619D02*
X113244286Y-71705000D01*
X113244286Y-71705000D02*
X113196667Y-71657380D01*
%TO.C,D3*%
X134662619Y-68048094D02*
X133662619Y-68048094D01*
X133662619Y-68048094D02*
X133662619Y-67809999D01*
X133662619Y-67809999D02*
X133710238Y-67667142D01*
X133710238Y-67667142D02*
X133805476Y-67571904D01*
X133805476Y-67571904D02*
X133900714Y-67524285D01*
X133900714Y-67524285D02*
X134091190Y-67476666D01*
X134091190Y-67476666D02*
X134234047Y-67476666D01*
X134234047Y-67476666D02*
X134424523Y-67524285D01*
X134424523Y-67524285D02*
X134519761Y-67571904D01*
X134519761Y-67571904D02*
X134615000Y-67667142D01*
X134615000Y-67667142D02*
X134662619Y-67809999D01*
X134662619Y-67809999D02*
X134662619Y-68048094D01*
X133662619Y-67143332D02*
X133662619Y-66524285D01*
X133662619Y-66524285D02*
X134043571Y-66857618D01*
X134043571Y-66857618D02*
X134043571Y-66714761D01*
X134043571Y-66714761D02*
X134091190Y-66619523D01*
X134091190Y-66619523D02*
X134138809Y-66571904D01*
X134138809Y-66571904D02*
X134234047Y-66524285D01*
X134234047Y-66524285D02*
X134472142Y-66524285D01*
X134472142Y-66524285D02*
X134567380Y-66571904D01*
X134567380Y-66571904D02*
X134615000Y-66619523D01*
X134615000Y-66619523D02*
X134662619Y-66714761D01*
X134662619Y-66714761D02*
X134662619Y-67000475D01*
X134662619Y-67000475D02*
X134615000Y-67095713D01*
X134615000Y-67095713D02*
X134567380Y-67143332D01*
%TO.C,C3*%
X114173333Y-55937380D02*
X114125714Y-55985000D01*
X114125714Y-55985000D02*
X113982857Y-56032619D01*
X113982857Y-56032619D02*
X113887619Y-56032619D01*
X113887619Y-56032619D02*
X113744762Y-55985000D01*
X113744762Y-55985000D02*
X113649524Y-55889761D01*
X113649524Y-55889761D02*
X113601905Y-55794523D01*
X113601905Y-55794523D02*
X113554286Y-55604047D01*
X113554286Y-55604047D02*
X113554286Y-55461190D01*
X113554286Y-55461190D02*
X113601905Y-55270714D01*
X113601905Y-55270714D02*
X113649524Y-55175476D01*
X113649524Y-55175476D02*
X113744762Y-55080238D01*
X113744762Y-55080238D02*
X113887619Y-55032619D01*
X113887619Y-55032619D02*
X113982857Y-55032619D01*
X113982857Y-55032619D02*
X114125714Y-55080238D01*
X114125714Y-55080238D02*
X114173333Y-55127857D01*
X114506667Y-55032619D02*
X115125714Y-55032619D01*
X115125714Y-55032619D02*
X114792381Y-55413571D01*
X114792381Y-55413571D02*
X114935238Y-55413571D01*
X114935238Y-55413571D02*
X115030476Y-55461190D01*
X115030476Y-55461190D02*
X115078095Y-55508809D01*
X115078095Y-55508809D02*
X115125714Y-55604047D01*
X115125714Y-55604047D02*
X115125714Y-55842142D01*
X115125714Y-55842142D02*
X115078095Y-55937380D01*
X115078095Y-55937380D02*
X115030476Y-55985000D01*
X115030476Y-55985000D02*
X114935238Y-56032619D01*
X114935238Y-56032619D02*
X114649524Y-56032619D01*
X114649524Y-56032619D02*
X114554286Y-55985000D01*
X114554286Y-55985000D02*
X114506667Y-55937380D01*
%TO.C,R1*%
X112863333Y-61592619D02*
X112530000Y-61116428D01*
X112291905Y-61592619D02*
X112291905Y-60592619D01*
X112291905Y-60592619D02*
X112672857Y-60592619D01*
X112672857Y-60592619D02*
X112768095Y-60640238D01*
X112768095Y-60640238D02*
X112815714Y-60687857D01*
X112815714Y-60687857D02*
X112863333Y-60783095D01*
X112863333Y-60783095D02*
X112863333Y-60925952D01*
X112863333Y-60925952D02*
X112815714Y-61021190D01*
X112815714Y-61021190D02*
X112768095Y-61068809D01*
X112768095Y-61068809D02*
X112672857Y-61116428D01*
X112672857Y-61116428D02*
X112291905Y-61116428D01*
X113815714Y-61592619D02*
X113244286Y-61592619D01*
X113530000Y-61592619D02*
X113530000Y-60592619D01*
X113530000Y-60592619D02*
X113434762Y-60735476D01*
X113434762Y-60735476D02*
X113339524Y-60830714D01*
X113339524Y-60830714D02*
X113244286Y-60878333D01*
%TO.C,R5*%
X112863333Y-81912619D02*
X112530000Y-81436428D01*
X112291905Y-81912619D02*
X112291905Y-80912619D01*
X112291905Y-80912619D02*
X112672857Y-80912619D01*
X112672857Y-80912619D02*
X112768095Y-80960238D01*
X112768095Y-80960238D02*
X112815714Y-81007857D01*
X112815714Y-81007857D02*
X112863333Y-81103095D01*
X112863333Y-81103095D02*
X112863333Y-81245952D01*
X112863333Y-81245952D02*
X112815714Y-81341190D01*
X112815714Y-81341190D02*
X112768095Y-81388809D01*
X112768095Y-81388809D02*
X112672857Y-81436428D01*
X112672857Y-81436428D02*
X112291905Y-81436428D01*
X113768095Y-80912619D02*
X113291905Y-80912619D01*
X113291905Y-80912619D02*
X113244286Y-81388809D01*
X113244286Y-81388809D02*
X113291905Y-81341190D01*
X113291905Y-81341190D02*
X113387143Y-81293571D01*
X113387143Y-81293571D02*
X113625238Y-81293571D01*
X113625238Y-81293571D02*
X113720476Y-81341190D01*
X113720476Y-81341190D02*
X113768095Y-81388809D01*
X113768095Y-81388809D02*
X113815714Y-81484047D01*
X113815714Y-81484047D02*
X113815714Y-81722142D01*
X113815714Y-81722142D02*
X113768095Y-81817380D01*
X113768095Y-81817380D02*
X113720476Y-81865000D01*
X113720476Y-81865000D02*
X113625238Y-81912619D01*
X113625238Y-81912619D02*
X113387143Y-81912619D01*
X113387143Y-81912619D02*
X113291905Y-81865000D01*
X113291905Y-81865000D02*
X113244286Y-81817380D01*
%TO.C,U1*%
X145208095Y-49242619D02*
X145208095Y-50052142D01*
X145208095Y-50052142D02*
X145255714Y-50147380D01*
X145255714Y-50147380D02*
X145303333Y-50195000D01*
X145303333Y-50195000D02*
X145398571Y-50242619D01*
X145398571Y-50242619D02*
X145589047Y-50242619D01*
X145589047Y-50242619D02*
X145684285Y-50195000D01*
X145684285Y-50195000D02*
X145731904Y-50147380D01*
X145731904Y-50147380D02*
X145779523Y-50052142D01*
X145779523Y-50052142D02*
X145779523Y-49242619D01*
X146779523Y-50242619D02*
X146208095Y-50242619D01*
X146493809Y-50242619D02*
X146493809Y-49242619D01*
X146493809Y-49242619D02*
X146398571Y-49385476D01*
X146398571Y-49385476D02*
X146303333Y-49480714D01*
X146303333Y-49480714D02*
X146208095Y-49528333D01*
%TO.C,SW2*%
X110426667Y-89085000D02*
X110569524Y-89132619D01*
X110569524Y-89132619D02*
X110807619Y-89132619D01*
X110807619Y-89132619D02*
X110902857Y-89085000D01*
X110902857Y-89085000D02*
X110950476Y-89037380D01*
X110950476Y-89037380D02*
X110998095Y-88942142D01*
X110998095Y-88942142D02*
X110998095Y-88846904D01*
X110998095Y-88846904D02*
X110950476Y-88751666D01*
X110950476Y-88751666D02*
X110902857Y-88704047D01*
X110902857Y-88704047D02*
X110807619Y-88656428D01*
X110807619Y-88656428D02*
X110617143Y-88608809D01*
X110617143Y-88608809D02*
X110521905Y-88561190D01*
X110521905Y-88561190D02*
X110474286Y-88513571D01*
X110474286Y-88513571D02*
X110426667Y-88418333D01*
X110426667Y-88418333D02*
X110426667Y-88323095D01*
X110426667Y-88323095D02*
X110474286Y-88227857D01*
X110474286Y-88227857D02*
X110521905Y-88180238D01*
X110521905Y-88180238D02*
X110617143Y-88132619D01*
X110617143Y-88132619D02*
X110855238Y-88132619D01*
X110855238Y-88132619D02*
X110998095Y-88180238D01*
X111331429Y-88132619D02*
X111569524Y-89132619D01*
X111569524Y-89132619D02*
X111760000Y-88418333D01*
X111760000Y-88418333D02*
X111950476Y-89132619D01*
X111950476Y-89132619D02*
X112188572Y-88132619D01*
X112521905Y-88227857D02*
X112569524Y-88180238D01*
X112569524Y-88180238D02*
X112664762Y-88132619D01*
X112664762Y-88132619D02*
X112902857Y-88132619D01*
X112902857Y-88132619D02*
X112998095Y-88180238D01*
X112998095Y-88180238D02*
X113045714Y-88227857D01*
X113045714Y-88227857D02*
X113093333Y-88323095D01*
X113093333Y-88323095D02*
X113093333Y-88418333D01*
X113093333Y-88418333D02*
X113045714Y-88561190D01*
X113045714Y-88561190D02*
X112474286Y-89132619D01*
X112474286Y-89132619D02*
X113093333Y-89132619D01*
%TO.C,C6*%
X135743333Y-94587380D02*
X135695714Y-94635000D01*
X135695714Y-94635000D02*
X135552857Y-94682619D01*
X135552857Y-94682619D02*
X135457619Y-94682619D01*
X135457619Y-94682619D02*
X135314762Y-94635000D01*
X135314762Y-94635000D02*
X135219524Y-94539761D01*
X135219524Y-94539761D02*
X135171905Y-94444523D01*
X135171905Y-94444523D02*
X135124286Y-94254047D01*
X135124286Y-94254047D02*
X135124286Y-94111190D01*
X135124286Y-94111190D02*
X135171905Y-93920714D01*
X135171905Y-93920714D02*
X135219524Y-93825476D01*
X135219524Y-93825476D02*
X135314762Y-93730238D01*
X135314762Y-93730238D02*
X135457619Y-93682619D01*
X135457619Y-93682619D02*
X135552857Y-93682619D01*
X135552857Y-93682619D02*
X135695714Y-93730238D01*
X135695714Y-93730238D02*
X135743333Y-93777857D01*
X136600476Y-93682619D02*
X136410000Y-93682619D01*
X136410000Y-93682619D02*
X136314762Y-93730238D01*
X136314762Y-93730238D02*
X136267143Y-93777857D01*
X136267143Y-93777857D02*
X136171905Y-93920714D01*
X136171905Y-93920714D02*
X136124286Y-94111190D01*
X136124286Y-94111190D02*
X136124286Y-94492142D01*
X136124286Y-94492142D02*
X136171905Y-94587380D01*
X136171905Y-94587380D02*
X136219524Y-94635000D01*
X136219524Y-94635000D02*
X136314762Y-94682619D01*
X136314762Y-94682619D02*
X136505238Y-94682619D01*
X136505238Y-94682619D02*
X136600476Y-94635000D01*
X136600476Y-94635000D02*
X136648095Y-94587380D01*
X136648095Y-94587380D02*
X136695714Y-94492142D01*
X136695714Y-94492142D02*
X136695714Y-94254047D01*
X136695714Y-94254047D02*
X136648095Y-94158809D01*
X136648095Y-94158809D02*
X136600476Y-94111190D01*
X136600476Y-94111190D02*
X136505238Y-94063571D01*
X136505238Y-94063571D02*
X136314762Y-94063571D01*
X136314762Y-94063571D02*
X136219524Y-94111190D01*
X136219524Y-94111190D02*
X136171905Y-94158809D01*
X136171905Y-94158809D02*
X136124286Y-94254047D01*
D12*
%TO.C,D2*%
X133384000Y-86650000D02*
X133540000Y-86650000D01*
X135700000Y-86650000D02*
X135856000Y-86650000D01*
X133541392Y-83417666D02*
G75*
G03*
X133384485Y-86649999I1078608J-1672334D01*
G01*
X133540164Y-84048871D02*
G75*
G03*
X133540001Y-86130960I1079836J-1041129D01*
G01*
X135699999Y-86130960D02*
G75*
G03*
X135699836Y-84048871I-1079999J1040960D01*
G01*
X135855515Y-86649999D02*
G75*
G03*
X135698608Y-83417666I-1235515J1559999D01*
G01*
%TO.C,D1*%
X143475515Y-86649999D02*
G75*
G03*
X143318608Y-83417666I-1235515J1559999D01*
G01*
X143319999Y-86130960D02*
G75*
G03*
X143319836Y-84048871I-1079999J1040960D01*
G01*
X141160164Y-84048871D02*
G75*
G03*
X141160001Y-86130960I1079836J-1041129D01*
G01*
X141161392Y-83417666D02*
G75*
G03*
X141004485Y-86649999I1078608J-1672334D01*
G01*
X143320000Y-86650000D02*
X143476000Y-86650000D01*
X141004000Y-86650000D02*
X141160000Y-86650000D01*
%TO.C,U4*%
X100670000Y-64770000D02*
X100670000Y-92770000D01*
X100670000Y-64770000D02*
X103330000Y-64770000D01*
X100670000Y-92770000D02*
X103330000Y-92770000D01*
X102000000Y-62170000D02*
X103330000Y-62170000D01*
X103330000Y-62170000D02*
X103330000Y-63500000D01*
X103330000Y-64770000D02*
X103330000Y-92770000D01*
%TO.C,C5*%
X115670000Y-92010000D02*
X115915000Y-92010000D01*
X115670000Y-92010000D02*
X115670000Y-88370000D01*
X117765000Y-92010000D02*
X118010000Y-92010000D01*
X118010000Y-92010000D02*
X118010000Y-88370000D01*
X115670000Y-88370000D02*
X115915000Y-88370000D01*
X117765000Y-88370000D02*
X118010000Y-88370000D01*
%TO.C,ADAFRUITFriend1*%
X113030000Y-54670000D02*
X125790000Y-54670000D01*
X113030000Y-54670000D02*
X113030000Y-52010000D01*
X125790000Y-54670000D02*
X125790000Y-52010000D01*
X110430000Y-53340000D02*
X110430000Y-52010000D01*
X110430000Y-52010000D02*
X111760000Y-52010000D01*
X113030000Y-52010000D02*
X125790000Y-52010000D01*
D13*
%TO.C,SW3*%
X128660000Y-51340000D02*
X140660000Y-51340000D01*
X128660000Y-55340000D02*
X128660000Y-51340000D01*
X140660000Y-51340000D02*
X140660000Y-55340000D01*
X140660000Y-55340000D02*
X128660000Y-55340000D01*
D12*
%TO.C,R2*%
X109760000Y-67210000D02*
X116300000Y-67210000D01*
X109760000Y-67540000D02*
X109760000Y-67210000D01*
X109760000Y-69620000D02*
X109760000Y-69950000D01*
X109760000Y-69950000D02*
X116300000Y-69950000D01*
X116300000Y-67210000D02*
X116300000Y-67540000D01*
X116300000Y-69950000D02*
X116300000Y-69620000D01*
%TO.C,U3*%
X145990000Y-67310000D02*
X145990000Y-95310000D01*
X145990000Y-67310000D02*
X148650000Y-67310000D01*
X145990000Y-95310000D02*
X148650000Y-95310000D01*
X147320000Y-64710000D02*
X148650000Y-64710000D01*
X148650000Y-64710000D02*
X148650000Y-66040000D01*
X148650000Y-67310000D02*
X148650000Y-95310000D01*
%TO.C,SW1*%
X104140000Y-91440000D02*
X104140000Y-96580000D01*
X104140000Y-91440000D02*
X109220000Y-91440000D01*
X104140000Y-96520000D02*
X109220000Y-96520000D01*
X106680000Y-90110000D02*
X108010000Y-90110000D01*
X108010000Y-90110000D02*
X108010000Y-91440000D01*
X109220000Y-91440000D02*
X109220000Y-96580000D01*
%TO.C,U5*%
X105410000Y-54670000D02*
X108010000Y-54670000D01*
X105410000Y-54670000D02*
X105410000Y-52010000D01*
X108010000Y-54670000D02*
X108010000Y-52010000D01*
X102810000Y-53340000D02*
X102810000Y-52010000D01*
X102810000Y-52010000D02*
X104140000Y-52010000D01*
X105410000Y-52010000D02*
X108010000Y-52010000D01*
%TO.C,U2*%
X120590000Y-59570000D02*
X120590000Y-95370000D01*
X120590000Y-95370000D02*
X130870000Y-95370000D01*
X123080000Y-59630000D02*
X123080000Y-95310000D01*
X123080000Y-95310000D02*
X128380000Y-95310000D01*
X124730000Y-59630000D02*
X123080000Y-59630000D01*
X128380000Y-59630000D02*
X126730000Y-59630000D01*
X128380000Y-95310000D02*
X128380000Y-59630000D01*
X130870000Y-59570000D02*
X120590000Y-59570000D01*
X130870000Y-95370000D02*
X130870000Y-59570000D01*
X124730000Y-59630000D02*
G75*
G03*
X126730000Y-59630000I1000000J0D01*
G01*
%TO.C,C1*%
X135439000Y-78910000D02*
X136105000Y-78910000D01*
X135439000Y-78910000D02*
X135439000Y-73570000D01*
X138215000Y-78910000D02*
X138881000Y-78910000D01*
X138881000Y-78910000D02*
X138881000Y-73570000D01*
X135439000Y-73570000D02*
X136105000Y-73570000D01*
X138215000Y-73570000D02*
X138881000Y-73570000D01*
%TO.C,C2*%
X104050000Y-56699000D02*
X104050000Y-57365000D01*
X104050000Y-56699000D02*
X109390000Y-56699000D01*
X104050000Y-59475000D02*
X104050000Y-60141000D01*
X104050000Y-60141000D02*
X109390000Y-60141000D01*
X109390000Y-56699000D02*
X109390000Y-57365000D01*
X109390000Y-59475000D02*
X109390000Y-60141000D01*
%TO.C,R4*%
X116300000Y-80110000D02*
X116300000Y-79780000D01*
X116300000Y-77370000D02*
X116300000Y-77700000D01*
X109760000Y-80110000D02*
X116300000Y-80110000D01*
X109760000Y-79780000D02*
X109760000Y-80110000D01*
X109760000Y-77700000D02*
X109760000Y-77370000D01*
X109760000Y-77370000D02*
X116300000Y-77370000D01*
%TO.C,C4*%
X134530000Y-89719000D02*
X134530000Y-90385000D01*
X134530000Y-89719000D02*
X139870000Y-89719000D01*
X134530000Y-92495000D02*
X134530000Y-93161000D01*
X134530000Y-93161000D02*
X139870000Y-93161000D01*
X139870000Y-89719000D02*
X139870000Y-90385000D01*
X139870000Y-92495000D02*
X139870000Y-93161000D01*
%TO.C,R3*%
X109760000Y-72290000D02*
X116300000Y-72290000D01*
X109760000Y-72620000D02*
X109760000Y-72290000D01*
X109760000Y-74700000D02*
X109760000Y-75030000D01*
X109760000Y-75030000D02*
X116300000Y-75030000D01*
X116300000Y-72290000D02*
X116300000Y-72620000D01*
X116300000Y-75030000D02*
X116300000Y-74700000D01*
%TO.C,D3*%
X135924000Y-68870000D02*
X136080000Y-68870000D01*
X138240000Y-68870000D02*
X138396000Y-68870000D01*
X136081392Y-65637666D02*
G75*
G03*
X135924485Y-68869999I1078608J-1672334D01*
G01*
X136080164Y-66268871D02*
G75*
G03*
X136080001Y-68350960I1079836J-1041129D01*
G01*
X138239999Y-68350960D02*
G75*
G03*
X138239836Y-66268871I-1079999J1040960D01*
G01*
X138395515Y-68869999D02*
G75*
G03*
X138238608Y-65637666I-1235515J1559999D01*
G01*
%TO.C,C3*%
X111670000Y-56699000D02*
X111670000Y-57365000D01*
X111670000Y-56699000D02*
X117010000Y-56699000D01*
X111670000Y-59475000D02*
X111670000Y-60141000D01*
X111670000Y-60141000D02*
X117010000Y-60141000D01*
X117010000Y-56699000D02*
X117010000Y-57365000D01*
X117010000Y-59475000D02*
X117010000Y-60141000D01*
%TO.C,R1*%
X116300000Y-64870000D02*
X116300000Y-64540000D01*
X116300000Y-62130000D02*
X116300000Y-62460000D01*
X109760000Y-64870000D02*
X116300000Y-64870000D01*
X109760000Y-64540000D02*
X109760000Y-64870000D01*
X109760000Y-62460000D02*
X109760000Y-62130000D01*
X109760000Y-62130000D02*
X116300000Y-62130000D01*
%TO.C,R5*%
X116300000Y-85190000D02*
X116300000Y-84860000D01*
X116300000Y-82450000D02*
X116300000Y-82780000D01*
X109760000Y-85190000D02*
X116300000Y-85190000D01*
X109760000Y-84860000D02*
X109760000Y-85190000D01*
X109760000Y-82780000D02*
X109760000Y-82450000D01*
X109760000Y-82450000D02*
X116300000Y-82450000D01*
%TO.C,U1*%
X144030000Y-55040000D02*
X147880000Y-55040000D01*
X147918611Y-55030122D02*
G75*
G03*
X144030000Y-55040000I-1948611J1690122D01*
G01*
%TO.C,SW2*%
X109220000Y-91440000D02*
X109220000Y-96580000D01*
X109220000Y-91440000D02*
X114300000Y-91440000D01*
X109220000Y-96520000D02*
X114300000Y-96520000D01*
X111760000Y-90110000D02*
X113090000Y-90110000D01*
X113090000Y-90110000D02*
X113090000Y-91440000D01*
X114300000Y-91440000D02*
X114300000Y-96580000D01*
%TO.C,C6*%
X134090000Y-95350000D02*
X134090000Y-95595000D01*
X134090000Y-95350000D02*
X137730000Y-95350000D01*
X134090000Y-97445000D02*
X134090000Y-97690000D01*
X134090000Y-97690000D02*
X137730000Y-97690000D01*
X137730000Y-95350000D02*
X137730000Y-95595000D01*
X137730000Y-97445000D02*
X137730000Y-97690000D01*
%TD*%
D14*
X100000000Y-50000000D02*
X150000000Y-50000000D01*
X150000000Y-100000000D01*
X100000000Y-100000000D01*
X100000000Y-50000000D01*
M02*
