%TF.GenerationSoftware,KiCad,Pcbnew,7.0.1*%
%TF.CreationDate,2023-04-23T17:26:01-05:00*%
%TF.ProjectId,hw4,6877342e-6b69-4636-9164-5f7063625858,rev?*%
%TF.SameCoordinates,Original*%
%TF.FileFunction,Copper,L2,Bot*%
%TF.FilePolarity,Positive*%
%FSLAX46Y46*%
G04 Gerber Fmt 4.6, Leading zero omitted, Abs format (unit mm)*
G04 Created by KiCad (PCBNEW 7.0.1) date 2023-04-23 17:26:01*
%MOMM*%
%LPD*%
G01*
G04 APERTURE LIST*
%TA.AperFunction,ComponentPad*%
%ADD10R,1.800000X1.800000*%
%TD*%
%TA.AperFunction,ComponentPad*%
%ADD11C,1.800000*%
%TD*%
%TA.AperFunction,ComponentPad*%
%ADD12R,1.700000X1.700000*%
%TD*%
%TA.AperFunction,ComponentPad*%
%ADD13O,1.700000X1.700000*%
%TD*%
%TA.AperFunction,ComponentPad*%
%ADD14C,1.600000*%
%TD*%
%TA.AperFunction,ComponentPad*%
%ADD15C,1.700000*%
%TD*%
%TA.AperFunction,ComponentPad*%
%ADD16O,1.600000X1.600000*%
%TD*%
%TA.AperFunction,ComponentPad*%
%ADD17R,1.600000X1.600000*%
%TD*%
%TA.AperFunction,ComponentPad*%
%ADD18R,1.050000X1.500000*%
%TD*%
%TA.AperFunction,ComponentPad*%
%ADD19O,1.050000X1.500000*%
%TD*%
%TA.AperFunction,ViaPad*%
%ADD20C,0.800000*%
%TD*%
%TA.AperFunction,Conductor*%
%ADD21C,0.250000*%
%TD*%
%TA.AperFunction,Profile*%
%ADD22C,0.100000*%
%TD*%
G04 APERTURE END LIST*
D10*
%TO.P,D2,1,K*%
%TO.N,Net-(D2-K)*%
X134620000Y-86360000D03*
D11*
%TO.P,D2,2,A*%
%TO.N,+3.3V*%
X134620000Y-83820000D03*
%TD*%
%TO.P,D1,2,A*%
%TO.N,+3.3V*%
X142240000Y-83820000D03*
D10*
%TO.P,D1,1,K*%
%TO.N,Net-(D1-K)*%
X142240000Y-86360000D03*
%TD*%
D12*
%TO.P,U4,1*%
%TO.N,/A0*%
X102000000Y-63500000D03*
D13*
%TO.P,U4,2*%
%TO.N,/A1*%
X102000000Y-66040000D03*
%TO.P,U4,3*%
%TO.N,/B0*%
X102000000Y-68580000D03*
%TO.P,U4,4*%
%TO.N,/B1*%
X102000000Y-71120000D03*
%TO.P,U4,5*%
%TO.N,/B2*%
X102000000Y-73660000D03*
%TO.P,U4,6*%
%TO.N,/A3*%
X102000000Y-76200000D03*
%TO.P,U4,7*%
%TO.N,/GREEN*%
X102000000Y-78740000D03*
%TO.P,U4,8*%
%TO.N,/YELLOW*%
X102000000Y-81280000D03*
%TO.P,U4,9*%
%TO.N,/B6*%
X102000000Y-83820000D03*
%TO.P,U4,10*%
%TO.N,/Vin*%
X102000000Y-86360000D03*
%TO.P,U4,11*%
%TO.N,+3.3V*%
X102000000Y-88900000D03*
%TO.P,U4,12*%
%TO.N,GND*%
X102000000Y-91440000D03*
%TD*%
D14*
%TO.P,C5,1*%
%TO.N,+3.3V*%
X116840000Y-91440000D03*
%TO.P,C5,2*%
%TO.N,GND*%
X116840000Y-88940000D03*
%TD*%
D12*
%TO.P,ADAFRUITFriend1,1*%
%TO.N,unconnected-(ADAFRUITFriend1-Pad1)*%
X111760000Y-53340000D03*
D13*
%TO.P,ADAFRUITFriend1,2,U1TX*%
%TO.N,/U1TX*%
X114300000Y-53340000D03*
%TO.P,ADAFRUITFriend1,3,U1RX*%
%TO.N,/U1RX*%
X116840000Y-53340000D03*
%TO.P,ADAFRUITFriend1,4*%
%TO.N,+5V*%
X119380000Y-53340000D03*
%TO.P,ADAFRUITFriend1,5*%
%TO.N,unconnected-(ADAFRUITFriend1-Pad5)*%
X121920000Y-53340000D03*
%TO.P,ADAFRUITFriend1,6*%
%TO.N,GND*%
X124460000Y-53340000D03*
%TD*%
D15*
%TO.P,SW3,1,B*%
%TO.N,Net-(SW3-B)*%
X132160000Y-53340000D03*
%TO.P,SW3,2,C*%
%TO.N,+5V*%
X134660000Y-53340000D03*
%TO.P,SW3,3,A*%
%TO.N,Net-(SW3-A)*%
X137160000Y-53340000D03*
%TD*%
D14*
%TO.P,R2,1*%
%TO.N,/YELLOW*%
X109220000Y-68580000D03*
D16*
%TO.P,R2,2*%
%TO.N,Net-(D2-K)*%
X116840000Y-68580000D03*
%TD*%
D12*
%TO.P,U3,1*%
%TO.N,/B15*%
X147320000Y-66040000D03*
D13*
%TO.P,U3,2*%
%TO.N,/B14*%
X147320000Y-68580000D03*
%TO.P,U3,3*%
%TO.N,/B13*%
X147320000Y-71120000D03*
%TO.P,U3,4*%
%TO.N,/B12*%
X147320000Y-73660000D03*
%TO.P,U3,5*%
%TO.N,/B11*%
X147320000Y-76200000D03*
%TO.P,U3,6*%
%TO.N,/B10*%
X147320000Y-78740000D03*
%TO.P,U3,7*%
%TO.N,/B9*%
X147320000Y-81280000D03*
%TO.P,U3,8*%
%TO.N,/B8*%
X147320000Y-83820000D03*
%TO.P,U3,9*%
%TO.N,/B7*%
X147320000Y-86360000D03*
%TO.P,U3,10*%
%TO.N,/Vin*%
X147320000Y-88900000D03*
%TO.P,U3,11*%
%TO.N,+3.3V*%
X147320000Y-91440000D03*
%TO.P,U3,12*%
%TO.N,GND*%
X147320000Y-93980000D03*
%TD*%
D12*
%TO.P,SW1,1,1*%
%TO.N,/USER*%
X106680000Y-91440000D03*
D13*
%TO.P,SW1,2,2*%
%TO.N,GND*%
X106680000Y-96520000D03*
%TD*%
D12*
%TO.P,U5,1,J1_Battery*%
%TO.N,Net-(SW3-A)*%
X104140000Y-53340000D03*
D13*
%TO.P,U5,2*%
%TO.N,GND*%
X106680000Y-53340000D03*
%TD*%
D17*
%TO.P,U2,1,~{MCLR}*%
%TO.N,/MCLR*%
X121920000Y-60960000D03*
D16*
%TO.P,U2,2,A0*%
%TO.N,/A0*%
X121920000Y-63500000D03*
%TO.P,U2,3,A1*%
%TO.N,/A1*%
X121920000Y-66040000D03*
%TO.P,U2,4,B0*%
%TO.N,/B0*%
X121920000Y-68580000D03*
%TO.P,U2,5,B1*%
%TO.N,/B1*%
X121920000Y-71120000D03*
%TO.P,U2,6,B2*%
%TO.N,/B2*%
X121920000Y-73660000D03*
%TO.P,U2,7,U1TX*%
%TO.N,/U1TX*%
X121920000Y-76200000D03*
%TO.P,U2,8,VSS*%
%TO.N,GND*%
X121920000Y-78740000D03*
%TO.P,U2,9,U1RX*%
%TO.N,/U1RX*%
X121920000Y-81280000D03*
%TO.P,U2,10,A3*%
%TO.N,/A3*%
X121920000Y-83820000D03*
%TO.P,U2,11,B4*%
%TO.N,/GREEN*%
X121920000Y-86360000D03*
%TO.P,U2,12,A4*%
%TO.N,/USER*%
X121920000Y-88900000D03*
%TO.P,U2,13,Vdd*%
%TO.N,+3.3V*%
X121920000Y-91440000D03*
%TO.P,U2,14,B5*%
%TO.N,/YELLOW*%
X121920000Y-93980000D03*
%TO.P,U2,15,B6*%
%TO.N,/B6*%
X129540000Y-93980000D03*
%TO.P,U2,16,B7*%
%TO.N,/B7*%
X129540000Y-91440000D03*
%TO.P,U2,17,B8*%
%TO.N,/B8*%
X129540000Y-88900000D03*
%TO.P,U2,18,B9*%
%TO.N,/B9*%
X129540000Y-86360000D03*
%TO.P,U2,19,Vss*%
%TO.N,GND*%
X129540000Y-83820000D03*
%TO.P,U2,20,Vcap*%
%TO.N,Net-(U2-Vcap)*%
X129540000Y-81280000D03*
%TO.P,U2,21,B10*%
%TO.N,/B10*%
X129540000Y-78740000D03*
%TO.P,U2,22,B11*%
%TO.N,/B11*%
X129540000Y-76200000D03*
%TO.P,U2,23,B12*%
%TO.N,/B12*%
X129540000Y-73660000D03*
%TO.P,U2,24,B13*%
%TO.N,/B13*%
X129540000Y-71120000D03*
%TO.P,U2,25,B14*%
%TO.N,/B14*%
X129540000Y-68580000D03*
%TO.P,U2,26,B15*%
%TO.N,/B15*%
X129540000Y-66040000D03*
%TO.P,U2,27,AVss*%
%TO.N,GND*%
X129540000Y-63500000D03*
%TO.P,U2,28,Avdd*%
%TO.N,+3.3V*%
X129540000Y-60960000D03*
%TD*%
D14*
%TO.P,C1,1*%
%TO.N,Net-(SW3-B)*%
X137160000Y-78740000D03*
%TO.P,C1,2*%
%TO.N,GND*%
X137160000Y-73740000D03*
%TD*%
%TO.P,C2,1*%
%TO.N,Net-(D3-A)*%
X104220000Y-58420000D03*
%TO.P,C2,2*%
%TO.N,GND*%
X109220000Y-58420000D03*
%TD*%
D16*
%TO.P,R4,2*%
%TO.N,/MCLR*%
X116840000Y-78740000D03*
D14*
%TO.P,R4,1*%
%TO.N,+3.3V*%
X109220000Y-78740000D03*
%TD*%
%TO.P,C4,1*%
%TO.N,Net-(U2-Vcap)*%
X134700000Y-91440000D03*
%TO.P,C4,2*%
%TO.N,GND*%
X139700000Y-91440000D03*
%TD*%
%TO.P,R3,1*%
%TO.N,+3.3V*%
X109220000Y-73660000D03*
D16*
%TO.P,R3,2*%
%TO.N,/USER*%
X116840000Y-73660000D03*
%TD*%
D10*
%TO.P,D3,1,K*%
%TO.N,Net-(D3-K)*%
X137160000Y-68580000D03*
D11*
%TO.P,D3,2,A*%
%TO.N,Net-(D3-A)*%
X137160000Y-66040000D03*
%TD*%
D14*
%TO.P,C3,1*%
%TO.N,Net-(D3-A)*%
X111840000Y-58420000D03*
%TO.P,C3,2*%
%TO.N,GND*%
X116840000Y-58420000D03*
%TD*%
D16*
%TO.P,R1,2*%
%TO.N,Net-(D1-K)*%
X116840000Y-63500000D03*
D14*
%TO.P,R1,1*%
%TO.N,/GREEN*%
X109220000Y-63500000D03*
%TD*%
D16*
%TO.P,R5,2*%
%TO.N,GND*%
X116840000Y-83820000D03*
D14*
%TO.P,R5,1*%
%TO.N,Net-(D3-K)*%
X109220000Y-83820000D03*
%TD*%
D18*
%TO.P,U1,1,VO*%
%TO.N,Net-(D3-A)*%
X144780000Y-53340000D03*
D19*
%TO.P,U1,2,GND*%
%TO.N,GND*%
X146050000Y-53340000D03*
%TO.P,U1,3,VI*%
%TO.N,Net-(SW3-B)*%
X147320000Y-53340000D03*
%TD*%
D12*
%TO.P,SW2,1,1*%
%TO.N,/MCLR*%
X111760000Y-91440000D03*
D13*
%TO.P,SW2,2,2*%
%TO.N,GND*%
X111760000Y-96520000D03*
%TD*%
D14*
%TO.P,C6,1*%
%TO.N,+3.3V*%
X134660000Y-96520000D03*
%TO.P,C6,2*%
%TO.N,GND*%
X137160000Y-96520000D03*
%TD*%
D20*
%TO.N,Net-(D3-K)*%
X119892299Y-81792299D03*
X132080000Y-68580000D03*
X127000000Y-71120000D03*
%TO.N,Net-(D3-A)*%
X142240000Y-66040000D03*
%TO.N,/GREEN*%
X118867700Y-80767700D03*
X119380000Y-76200000D03*
%TO.N,/YELLOW*%
X124460000Y-91440000D03*
%TO.N,Net-(D1-K)*%
X130959698Y-75004107D03*
X135344500Y-73660000D03*
X139700000Y-84544500D03*
%TO.N,Net-(D2-K)*%
X131322300Y-82037700D03*
%TO.N,GND*%
X147320000Y-93980000D03*
%TO.N,Net-(U2-Vcap)*%
X132080000Y-88175500D03*
%TO.N,GND*%
X146195500Y-53340000D03*
X137160000Y-73740000D03*
X129540000Y-83820000D03*
X137160000Y-96520000D03*
X139700000Y-91440000D03*
X119380000Y-58420000D03*
%TO.N,+3.3V*%
X119380000Y-86360000D03*
X111247700Y-83307700D03*
%TO.N,/B9*%
X132080000Y-81280000D03*
%TD*%
D21*
%TO.N,Net-(D3-K)*%
X112997300Y-80042700D02*
X109220000Y-83820000D01*
X119892299Y-81792299D02*
X119892299Y-80766994D01*
X119892299Y-80766994D02*
X119168005Y-80042700D01*
X128125000Y-69995000D02*
X127000000Y-71120000D01*
X132080000Y-68580000D02*
X130665000Y-69995000D01*
X119168005Y-80042700D02*
X112997300Y-80042700D01*
X130665000Y-69995000D02*
X128125000Y-69995000D01*
%TO.N,+3.3V*%
X135785000Y-95395000D02*
X143365000Y-95395000D01*
X134660000Y-96520000D02*
X135785000Y-95395000D01*
X143365000Y-95395000D02*
X147320000Y-91440000D01*
%TO.N,Net-(D3-A)*%
X105635000Y-59835000D02*
X113255000Y-59835000D01*
X104220000Y-58420000D02*
X105635000Y-59835000D01*
X113255000Y-59835000D02*
X111840000Y-58420000D01*
X130955000Y-59835000D02*
X113255000Y-59835000D01*
X137160000Y-66040000D02*
X130955000Y-59835000D01*
X144780000Y-63500000D02*
X142240000Y-66040000D01*
X144780000Y-53340000D02*
X144780000Y-63500000D01*
%TO.N,Net-(SW3-A)*%
X105315000Y-52165000D02*
X104140000Y-53340000D01*
X135985000Y-52165000D02*
X105315000Y-52165000D01*
X137160000Y-53340000D02*
X135985000Y-52165000D01*
%TO.N,/GREEN*%
X118867700Y-83307700D02*
X121920000Y-86360000D01*
X118867700Y-80767700D02*
X118867700Y-83307700D01*
X109220000Y-64136396D02*
X119380000Y-74296396D01*
X104140000Y-78740000D02*
X104140000Y-68580000D01*
X119380000Y-74296396D02*
X119380000Y-76200000D01*
X109220000Y-63500000D02*
X109220000Y-64136396D01*
X102000000Y-78740000D02*
X104140000Y-78740000D01*
X104140000Y-68580000D02*
X109220000Y-63500000D01*
%TO.N,/YELLOW*%
X106680000Y-81280000D02*
X102000000Y-81280000D01*
X106680000Y-71120000D02*
X106680000Y-81280000D01*
X109220000Y-68580000D02*
X106680000Y-71120000D01*
X117965000Y-77325000D02*
X109220000Y-68580000D01*
X124460000Y-78739999D02*
X123045001Y-77325000D01*
X123045001Y-77325000D02*
X117965000Y-77325000D01*
X124460000Y-91440000D02*
X124460000Y-78739999D01*
%TO.N,Net-(SW3-B)*%
X139611396Y-60791396D02*
X132160000Y-53340000D01*
X139611396Y-76288604D02*
X139611396Y-60791396D01*
X137160000Y-78740000D02*
X139611396Y-76288604D01*
%TO.N,Net-(D1-K)*%
X120795000Y-67455000D02*
X116840000Y-63500000D01*
X120795000Y-71585991D02*
X120795000Y-67455000D01*
X121744009Y-72535000D02*
X120795000Y-71585991D01*
X130005991Y-72535000D02*
X121744009Y-72535000D01*
X130959698Y-75004107D02*
X130959698Y-73488707D01*
X130959698Y-73488707D02*
X130005991Y-72535000D01*
X139700000Y-84544500D02*
X135344500Y-80189000D01*
X135344500Y-80189000D02*
X135344500Y-73660000D01*
%TO.N,Net-(D2-K)*%
X116840000Y-71120000D02*
X116840000Y-68580000D01*
X120795000Y-75075000D02*
X116840000Y-71120000D01*
X131322300Y-76391309D02*
X130005991Y-75075000D01*
X130005991Y-75075000D02*
X120795000Y-75075000D01*
X131322300Y-82037700D02*
X131322300Y-76391309D01*
%TO.N,/B6*%
X105745000Y-92855000D02*
X104140000Y-91250000D01*
X128415000Y-92855000D02*
X105745000Y-92855000D01*
X104140000Y-91250000D02*
X104140000Y-85960000D01*
X129540000Y-93980000D02*
X128415000Y-92855000D01*
X104140000Y-85960000D02*
X102000000Y-83820000D01*
%TO.N,+3.3V*%
X134620000Y-66040000D02*
X129540000Y-60960000D01*
X134620000Y-83820000D02*
X134620000Y-66040000D01*
X146145000Y-90265000D02*
X147320000Y-91440000D01*
X146145000Y-87725000D02*
X146145000Y-90265000D01*
X142240000Y-83820000D02*
X146145000Y-87725000D01*
%TO.N,Net-(U2-Vcap)*%
X132080000Y-88820000D02*
X134700000Y-91440000D01*
X132080000Y-88175500D02*
X132080000Y-88820000D01*
%TO.N,GND*%
X119380000Y-58420000D02*
X124460000Y-53340000D01*
%TO.N,+3.3V*%
X114300000Y-86360000D02*
X119380000Y-86360000D01*
X111247700Y-83307700D02*
X114300000Y-86360000D01*
%TO.N,/USER*%
X120835000Y-87815000D02*
X121920000Y-88900000D01*
X110305000Y-87815000D02*
X120835000Y-87815000D01*
X106680000Y-91440000D02*
X110305000Y-87815000D01*
%TO.N,/U1RX*%
X123045000Y-80155000D02*
X121920000Y-81280000D01*
%TO.N,/B9*%
X132080000Y-81280000D02*
X132080000Y-86360000D01*
X132080000Y-86360000D02*
X129540000Y-86360000D01*
%TD*%
%TA.AperFunction,Conductor*%
%TO.N,GND*%
G36*
X128220707Y-75713288D02*
G01*
X128264239Y-75749013D01*
X128287480Y-75800309D01*
X128285638Y-75856593D01*
X128254364Y-75973308D01*
X128234531Y-76200000D01*
X128254364Y-76426689D01*
X128313261Y-76646497D01*
X128409432Y-76852735D01*
X128539953Y-77039140D01*
X128700859Y-77200046D01*
X128887263Y-77330566D01*
X128887266Y-77330568D01*
X128945275Y-77357618D01*
X128997450Y-77403375D01*
X129016869Y-77470000D01*
X128997450Y-77536625D01*
X128945275Y-77582382D01*
X128887263Y-77609433D01*
X128700859Y-77739953D01*
X128539953Y-77900859D01*
X128409432Y-78087264D01*
X128313261Y-78293502D01*
X128254364Y-78513310D01*
X128234531Y-78740000D01*
X128254364Y-78966689D01*
X128313261Y-79186497D01*
X128409432Y-79392735D01*
X128539953Y-79579140D01*
X128700859Y-79740046D01*
X128884701Y-79868772D01*
X128887266Y-79870568D01*
X128945275Y-79897618D01*
X128997450Y-79943375D01*
X129016869Y-80010000D01*
X128997450Y-80076625D01*
X128945275Y-80122382D01*
X128887263Y-80149433D01*
X128700859Y-80279953D01*
X128539953Y-80440859D01*
X128409432Y-80627264D01*
X128313261Y-80833502D01*
X128254364Y-81053310D01*
X128234531Y-81280000D01*
X128254364Y-81506689D01*
X128313261Y-81726497D01*
X128409432Y-81932735D01*
X128539953Y-82119140D01*
X128700859Y-82280046D01*
X128887264Y-82410567D01*
X128887265Y-82410567D01*
X128887266Y-82410568D01*
X128945865Y-82437893D01*
X128998040Y-82483650D01*
X129017460Y-82550274D01*
X128998041Y-82616899D01*
X128945866Y-82662656D01*
X128887522Y-82689863D01*
X128701180Y-82820341D01*
X128540341Y-82981180D01*
X128409865Y-83167519D01*
X128313733Y-83373673D01*
X128261128Y-83569999D01*
X128261128Y-83570000D01*
X130818872Y-83570000D01*
X130818871Y-83569999D01*
X130766266Y-83373673D01*
X130670134Y-83167519D01*
X130539658Y-82981180D01*
X130378819Y-82820341D01*
X130192482Y-82689866D01*
X130134133Y-82662657D01*
X130081958Y-82616899D01*
X130062539Y-82550274D01*
X130081959Y-82483649D01*
X130134134Y-82437893D01*
X130192734Y-82410568D01*
X130303022Y-82333343D01*
X130356347Y-82312204D01*
X130413485Y-82317328D01*
X130462202Y-82347622D01*
X130492071Y-82396600D01*
X130495119Y-82405983D01*
X130589766Y-82569916D01*
X130716429Y-82710589D01*
X130869569Y-82821851D01*
X131042497Y-82898844D01*
X131227652Y-82938200D01*
X131330500Y-82938200D01*
X131392500Y-82954813D01*
X131437887Y-83000200D01*
X131454500Y-83062200D01*
X131454500Y-85610500D01*
X131437887Y-85672500D01*
X131392500Y-85717887D01*
X131330500Y-85734500D01*
X130754188Y-85734500D01*
X130696931Y-85720489D01*
X130652613Y-85681623D01*
X130540046Y-85520859D01*
X130379140Y-85359953D01*
X130192736Y-85229433D01*
X130166908Y-85217389D01*
X130134132Y-85202105D01*
X130081958Y-85156348D01*
X130062539Y-85089723D01*
X130081959Y-85023098D01*
X130134135Y-84977342D01*
X130192479Y-84950135D01*
X130378819Y-84819658D01*
X130539658Y-84658819D01*
X130670134Y-84472480D01*
X130766266Y-84266326D01*
X130818872Y-84070000D01*
X128261128Y-84070000D01*
X128313733Y-84266326D01*
X128409865Y-84472480D01*
X128540341Y-84658819D01*
X128701180Y-84819658D01*
X128887519Y-84950134D01*
X128945865Y-84977342D01*
X128998040Y-85023099D01*
X129017460Y-85089723D01*
X128998041Y-85156348D01*
X128945866Y-85202105D01*
X128887267Y-85229430D01*
X128700859Y-85359953D01*
X128539953Y-85520859D01*
X128409432Y-85707264D01*
X128313261Y-85913502D01*
X128254364Y-86133310D01*
X128234531Y-86360000D01*
X128254364Y-86586689D01*
X128313261Y-86806497D01*
X128409432Y-87012735D01*
X128539953Y-87199140D01*
X128700859Y-87360046D01*
X128887263Y-87490566D01*
X128887266Y-87490568D01*
X128945275Y-87517618D01*
X128997450Y-87563375D01*
X129016869Y-87630000D01*
X128997450Y-87696625D01*
X128945275Y-87742382D01*
X128887263Y-87769433D01*
X128700859Y-87899953D01*
X128539953Y-88060859D01*
X128409432Y-88247264D01*
X128313261Y-88453502D01*
X128254364Y-88673310D01*
X128234531Y-88900000D01*
X128254364Y-89126689D01*
X128313261Y-89346497D01*
X128409432Y-89552735D01*
X128539953Y-89739140D01*
X128700859Y-89900046D01*
X128870781Y-90019025D01*
X128887266Y-90030568D01*
X128945275Y-90057618D01*
X128997450Y-90103375D01*
X129016869Y-90170000D01*
X128997450Y-90236625D01*
X128945275Y-90282382D01*
X128887263Y-90309433D01*
X128700859Y-90439953D01*
X128539953Y-90600859D01*
X128409432Y-90787264D01*
X128313261Y-90993502D01*
X128254364Y-91213310D01*
X128234531Y-91440000D01*
X128254364Y-91666689D01*
X128313261Y-91886497D01*
X128390948Y-92053095D01*
X128402301Y-92113610D01*
X128383147Y-92172125D01*
X128338209Y-92214214D01*
X128278566Y-92229500D01*
X125239382Y-92229500D01*
X125184247Y-92216568D01*
X125140612Y-92180470D01*
X125117578Y-92128735D01*
X125119950Y-92072154D01*
X125147230Y-92022528D01*
X125192533Y-91972216D01*
X125287179Y-91808284D01*
X125345674Y-91628256D01*
X125365460Y-91440000D01*
X125345674Y-91251744D01*
X125287179Y-91071716D01*
X125287179Y-91071715D01*
X125192535Y-90907786D01*
X125179427Y-90893229D01*
X125117347Y-90824282D01*
X125093736Y-90785751D01*
X125085500Y-90741313D01*
X125085500Y-78822743D01*
X125087764Y-78802235D01*
X125087666Y-78799126D01*
X125085561Y-78732112D01*
X125085500Y-78728218D01*
X125085500Y-78700653D01*
X125085500Y-78700649D01*
X125084997Y-78696669D01*
X125084081Y-78685027D01*
X125082710Y-78641372D01*
X125077118Y-78622125D01*
X125073174Y-78603084D01*
X125070664Y-78583207D01*
X125054579Y-78542582D01*
X125050808Y-78531567D01*
X125038618Y-78489609D01*
X125028414Y-78472354D01*
X125019861Y-78454894D01*
X125012486Y-78436268D01*
X125012486Y-78436267D01*
X124986808Y-78400924D01*
X124980401Y-78391170D01*
X124958169Y-78353578D01*
X124944006Y-78339415D01*
X124931367Y-78324616D01*
X124919595Y-78308412D01*
X124885941Y-78280572D01*
X124877299Y-78272708D01*
X123545803Y-76941211D01*
X123532907Y-76925113D01*
X123481776Y-76877098D01*
X123478979Y-76874387D01*
X123459471Y-76854879D01*
X123456291Y-76852412D01*
X123447425Y-76844839D01*
X123415583Y-76814938D01*
X123398025Y-76805285D01*
X123381765Y-76794604D01*
X123365937Y-76782327D01*
X123325852Y-76764980D01*
X123315362Y-76759841D01*
X123277092Y-76738802D01*
X123257692Y-76733821D01*
X123239287Y-76727520D01*
X123235134Y-76725723D01*
X123188560Y-76690629D01*
X123163178Y-76638125D01*
X123164601Y-76579830D01*
X123205635Y-76426692D01*
X123225468Y-76200000D01*
X123205635Y-75973308D01*
X123192428Y-75924018D01*
X123174362Y-75856593D01*
X123172520Y-75800309D01*
X123195761Y-75749013D01*
X123239293Y-75713288D01*
X123294137Y-75700500D01*
X128165863Y-75700500D01*
X128220707Y-75713288D01*
G37*
%TD.AperFunction*%
%TA.AperFunction,Conductor*%
G36*
X115521225Y-88453288D02*
G01*
X115564757Y-88489014D01*
X115587998Y-88540309D01*
X115586156Y-88596594D01*
X115554858Y-88713397D01*
X115535033Y-88940000D01*
X115554858Y-89166602D01*
X115613733Y-89386326D01*
X115709866Y-89592484D01*
X115760972Y-89665471D01*
X115760973Y-89665472D01*
X116752318Y-88674127D01*
X116807905Y-88642033D01*
X116872093Y-88642033D01*
X116927680Y-88674127D01*
X117919025Y-89665472D01*
X117970134Y-89592480D01*
X118066266Y-89386326D01*
X118125141Y-89166602D01*
X118144966Y-88940000D01*
X118125141Y-88713397D01*
X118093844Y-88596594D01*
X118092002Y-88540309D01*
X118115243Y-88489014D01*
X118158775Y-88453288D01*
X118213619Y-88440500D01*
X120524548Y-88440500D01*
X120572001Y-88449939D01*
X120612229Y-88476819D01*
X120620586Y-88485176D01*
X120652680Y-88540763D01*
X120652680Y-88604949D01*
X120634364Y-88673307D01*
X120614531Y-88900000D01*
X120634364Y-89126689D01*
X120693261Y-89346497D01*
X120789432Y-89552735D01*
X120919953Y-89739140D01*
X121080859Y-89900046D01*
X121250781Y-90019025D01*
X121267266Y-90030568D01*
X121325275Y-90057618D01*
X121377450Y-90103375D01*
X121396869Y-90170000D01*
X121377450Y-90236625D01*
X121325275Y-90282382D01*
X121267263Y-90309433D01*
X121080859Y-90439953D01*
X120919953Y-90600859D01*
X120789432Y-90787264D01*
X120693261Y-90993502D01*
X120634364Y-91213310D01*
X120614531Y-91440000D01*
X120634364Y-91666689D01*
X120693261Y-91886497D01*
X120770948Y-92053095D01*
X120782301Y-92113610D01*
X120763147Y-92172125D01*
X120718209Y-92214214D01*
X120658566Y-92229500D01*
X118101434Y-92229500D01*
X118041791Y-92214214D01*
X117996853Y-92172125D01*
X117977699Y-92113610D01*
X117989052Y-92053095D01*
X118026768Y-91972213D01*
X118066739Y-91886496D01*
X118125635Y-91666692D01*
X118145468Y-91440000D01*
X118125635Y-91213308D01*
X118066739Y-90993504D01*
X117970568Y-90787266D01*
X117969507Y-90785751D01*
X117840046Y-90600859D01*
X117679140Y-90439953D01*
X117492735Y-90309432D01*
X117477023Y-90302106D01*
X117424847Y-90256348D01*
X117405428Y-90189722D01*
X117424849Y-90123097D01*
X117477026Y-90077340D01*
X117492484Y-90070131D01*
X117565472Y-90019025D01*
X116839999Y-89293553D01*
X116839998Y-89293553D01*
X116114526Y-90019025D01*
X116114526Y-90019026D01*
X116187515Y-90070133D01*
X116202975Y-90077342D01*
X116255150Y-90123098D01*
X116274570Y-90189722D01*
X116255152Y-90256347D01*
X116202978Y-90302104D01*
X116187268Y-90309429D01*
X116000859Y-90439953D01*
X115839953Y-90600859D01*
X115709432Y-90787264D01*
X115613261Y-90993502D01*
X115554364Y-91213310D01*
X115534531Y-91440000D01*
X115554364Y-91666689D01*
X115613261Y-91886497D01*
X115690948Y-92053095D01*
X115702301Y-92113610D01*
X115683147Y-92172125D01*
X115638209Y-92214214D01*
X115578566Y-92229500D01*
X113234500Y-92229500D01*
X113172500Y-92212887D01*
X113127113Y-92167500D01*
X113110500Y-92105500D01*
X113110499Y-90542130D01*
X113110381Y-90541032D01*
X113104091Y-90482517D01*
X113053796Y-90347669D01*
X112967546Y-90232454D01*
X112852331Y-90146204D01*
X112717483Y-90095909D01*
X112657873Y-90089500D01*
X112657869Y-90089500D01*
X110862130Y-90089500D01*
X110802515Y-90095909D01*
X110667669Y-90146204D01*
X110552454Y-90232454D01*
X110466204Y-90347668D01*
X110415909Y-90482515D01*
X110415909Y-90482517D01*
X110409500Y-90542127D01*
X110409500Y-91378021D01*
X110409501Y-92105500D01*
X110392888Y-92167500D01*
X110347501Y-92212887D01*
X110285501Y-92229500D01*
X108154500Y-92229500D01*
X108092500Y-92212887D01*
X108047113Y-92167500D01*
X108030500Y-92105500D01*
X108030499Y-91025452D01*
X108039938Y-90977999D01*
X108066815Y-90937774D01*
X110527771Y-88476819D01*
X110568000Y-88449939D01*
X110615453Y-88440500D01*
X115466381Y-88440500D01*
X115521225Y-88453288D01*
G37*
%TD.AperFunction*%
%TA.AperFunction,Conductor*%
G36*
X117898346Y-80682715D02*
G01*
X117942933Y-80722860D01*
X117963453Y-80779239D01*
X117982026Y-80955957D01*
X118040520Y-81135984D01*
X118135164Y-81299913D01*
X118135167Y-81299916D01*
X118210352Y-81383417D01*
X118233964Y-81421949D01*
X118242200Y-81466387D01*
X118242200Y-83191637D01*
X118224489Y-83255502D01*
X118176415Y-83301122D01*
X118111710Y-83315467D01*
X118048860Y-83294438D01*
X118005818Y-83244042D01*
X117970134Y-83167519D01*
X117839658Y-82981180D01*
X117678819Y-82820341D01*
X117492480Y-82689865D01*
X117286326Y-82593733D01*
X117090000Y-82541128D01*
X117090000Y-83570000D01*
X118129067Y-83570000D01*
X118155787Y-83549580D01*
X118219939Y-83541517D01*
X118279429Y-83566845D01*
X118304205Y-83600068D01*
X118306007Y-83598760D01*
X118340880Y-83646759D01*
X118347293Y-83656522D01*
X118369526Y-83694116D01*
X118369529Y-83694119D01*
X118369530Y-83694120D01*
X118383695Y-83708285D01*
X118396327Y-83723075D01*
X118408106Y-83739287D01*
X118441758Y-83767126D01*
X118450399Y-83774989D01*
X120620586Y-85945177D01*
X120652680Y-86000764D01*
X120652680Y-86064950D01*
X120634364Y-86133307D01*
X120614531Y-86360000D01*
X120634364Y-86586689D01*
X120693261Y-86806497D01*
X120725440Y-86875503D01*
X120789432Y-87012734D01*
X120789433Y-87012735D01*
X120789601Y-87013095D01*
X120800954Y-87073609D01*
X120781800Y-87132125D01*
X120736862Y-87174214D01*
X120677219Y-87189500D01*
X120123366Y-87189500D01*
X120068231Y-87176568D01*
X120024596Y-87140470D01*
X120001562Y-87088735D01*
X120003934Y-87032154D01*
X120031216Y-86982528D01*
X120112533Y-86892216D01*
X120207179Y-86728284D01*
X120233383Y-86647637D01*
X120265674Y-86548256D01*
X120285460Y-86360000D01*
X120265674Y-86171744D01*
X120217096Y-86022237D01*
X120207179Y-85991715D01*
X120112533Y-85827783D01*
X119985870Y-85687110D01*
X119832730Y-85575848D01*
X119659802Y-85498855D01*
X119474648Y-85459500D01*
X119474646Y-85459500D01*
X119285354Y-85459500D01*
X119285352Y-85459500D01*
X119100197Y-85498855D01*
X118927272Y-85575847D01*
X118878653Y-85611171D01*
X118774129Y-85687112D01*
X118768401Y-85693473D01*
X118726688Y-85723780D01*
X118676253Y-85734500D01*
X114610452Y-85734500D01*
X114562999Y-85725061D01*
X114522771Y-85698181D01*
X112894591Y-84070000D01*
X115561128Y-84070000D01*
X115613733Y-84266326D01*
X115709865Y-84472480D01*
X115840341Y-84658819D01*
X116001180Y-84819658D01*
X116187519Y-84950134D01*
X116393673Y-85046266D01*
X116589999Y-85098871D01*
X116590000Y-85098872D01*
X116590000Y-84070000D01*
X117090000Y-84070000D01*
X117090000Y-85098871D01*
X117286326Y-85046266D01*
X117492480Y-84950134D01*
X117678819Y-84819658D01*
X117839658Y-84658819D01*
X117970134Y-84472480D01*
X118066266Y-84266326D01*
X118118872Y-84070000D01*
X117090000Y-84070000D01*
X116590000Y-84070000D01*
X115561128Y-84070000D01*
X112894591Y-84070000D01*
X112394591Y-83570000D01*
X115561128Y-83570000D01*
X116590000Y-83570000D01*
X116590000Y-82541128D01*
X116589999Y-82541128D01*
X116393673Y-82593733D01*
X116187519Y-82689865D01*
X116001180Y-82820341D01*
X115840341Y-82981180D01*
X115709865Y-83167519D01*
X115613733Y-83373673D01*
X115561128Y-83569999D01*
X115561128Y-83570000D01*
X112394591Y-83570000D01*
X112186660Y-83362069D01*
X112162420Y-83327771D01*
X112151021Y-83287355D01*
X112133374Y-83119444D01*
X112088449Y-82981180D01*
X112074879Y-82939415D01*
X111980233Y-82775483D01*
X111853570Y-82634810D01*
X111700430Y-82523548D01*
X111658095Y-82504699D01*
X111611151Y-82468187D01*
X111586607Y-82414017D01*
X111590109Y-82354649D01*
X111620848Y-82303741D01*
X113220071Y-80704519D01*
X113260300Y-80677639D01*
X113307753Y-80668200D01*
X117840132Y-80668200D01*
X117898346Y-80682715D01*
G37*
%TD.AperFunction*%
%TA.AperFunction,Conductor*%
G36*
X120718760Y-77965786D02*
G01*
X120763697Y-78007875D01*
X120782851Y-78066390D01*
X120771499Y-78126904D01*
X120693734Y-78293671D01*
X120641128Y-78489999D01*
X120641128Y-78490000D01*
X123223075Y-78490000D01*
X123223700Y-78489542D01*
X123292950Y-78485002D01*
X123353793Y-78518382D01*
X123798181Y-78962770D01*
X123825061Y-79002998D01*
X123834500Y-79050451D01*
X123834500Y-79800822D01*
X123818785Y-79861241D01*
X123775622Y-79906345D01*
X123715952Y-79924702D01*
X123654901Y-79911658D01*
X123607942Y-79870521D01*
X123606754Y-79868773D01*
X123606754Y-79868772D01*
X123517923Y-79738062D01*
X123399378Y-79633550D01*
X123399376Y-79633549D01*
X123399375Y-79633548D01*
X123258565Y-79561803D01*
X123148816Y-79537271D01*
X123099183Y-79513703D01*
X123064606Y-79471003D01*
X123051873Y-79417555D01*
X123063484Y-79363852D01*
X123146266Y-79186325D01*
X123198872Y-78990000D01*
X120641128Y-78990000D01*
X120693733Y-79186326D01*
X120789865Y-79392480D01*
X120920341Y-79578819D01*
X121081180Y-79739658D01*
X121267519Y-79870134D01*
X121325865Y-79897342D01*
X121378040Y-79943099D01*
X121397460Y-80009723D01*
X121378041Y-80076348D01*
X121325866Y-80122105D01*
X121267267Y-80149430D01*
X121080859Y-80279953D01*
X120919953Y-80440859D01*
X120789433Y-80627263D01*
X120751096Y-80709477D01*
X120708696Y-80759435D01*
X120646755Y-80780810D01*
X120582569Y-80767632D01*
X120534060Y-80723581D01*
X120521500Y-80682797D01*
X120519380Y-80683414D01*
X120515008Y-80668368D01*
X120515008Y-80668366D01*
X120509418Y-80649128D01*
X120505473Y-80630076D01*
X120502963Y-80610202D01*
X120495954Y-80592500D01*
X120486877Y-80569575D01*
X120483104Y-80558554D01*
X120470916Y-80516604D01*
X120460720Y-80499363D01*
X120452162Y-80481896D01*
X120444785Y-80463262D01*
X120419097Y-80427906D01*
X120412708Y-80418178D01*
X120390469Y-80380573D01*
X120376304Y-80366408D01*
X120363668Y-80351614D01*
X120351894Y-80335408D01*
X120346440Y-80330896D01*
X120318234Y-80307562D01*
X120309604Y-80299708D01*
X119668807Y-79658911D01*
X119655911Y-79642813D01*
X119604780Y-79594798D01*
X119601983Y-79592087D01*
X119582475Y-79572579D01*
X119579295Y-79570112D01*
X119570429Y-79562539D01*
X119538587Y-79532638D01*
X119521029Y-79522985D01*
X119504769Y-79512304D01*
X119488941Y-79500027D01*
X119448856Y-79482680D01*
X119438366Y-79477541D01*
X119400096Y-79456502D01*
X119380696Y-79451521D01*
X119362289Y-79445219D01*
X119343902Y-79437262D01*
X119300763Y-79430429D01*
X119289329Y-79428061D01*
X119247024Y-79417200D01*
X119226989Y-79417200D01*
X119207591Y-79415673D01*
X119200167Y-79414497D01*
X119187810Y-79412540D01*
X119187809Y-79412540D01*
X119162473Y-79414935D01*
X119144330Y-79416650D01*
X119132661Y-79417200D01*
X118153801Y-79417200D01*
X118094158Y-79401914D01*
X118049220Y-79359825D01*
X118030066Y-79301310D01*
X118041419Y-79240795D01*
X118051191Y-79219838D01*
X118066739Y-79186496D01*
X118125635Y-78966692D01*
X118145468Y-78740000D01*
X118125635Y-78513308D01*
X118066739Y-78293504D01*
X117989051Y-78126904D01*
X117977699Y-78066390D01*
X117996853Y-78007875D01*
X118041791Y-77965786D01*
X118101434Y-77950500D01*
X120659117Y-77950500D01*
X120718760Y-77965786D01*
G37*
%TD.AperFunction*%
%TA.AperFunction,Conductor*%
G36*
X149937500Y-50017113D02*
G01*
X149982887Y-50062500D01*
X149999500Y-50124500D01*
X149999500Y-99875500D01*
X149982887Y-99937500D01*
X149937500Y-99982887D01*
X149875500Y-99999500D01*
X100124500Y-99999500D01*
X100062500Y-99982887D01*
X100017113Y-99937500D01*
X100000500Y-99875500D01*
X100000500Y-96770000D01*
X105349364Y-96770000D01*
X105406569Y-96983492D01*
X105506399Y-97197576D01*
X105641893Y-97391081D01*
X105808918Y-97558106D01*
X106002423Y-97693600D01*
X106216507Y-97793430D01*
X106429999Y-97850635D01*
X106430000Y-97850636D01*
X106430000Y-96770000D01*
X106930000Y-96770000D01*
X106930000Y-97850635D01*
X107143492Y-97793430D01*
X107357576Y-97693600D01*
X107551081Y-97558106D01*
X107718106Y-97391081D01*
X107853600Y-97197576D01*
X107953430Y-96983492D01*
X108010636Y-96770000D01*
X110429364Y-96770000D01*
X110486569Y-96983492D01*
X110586399Y-97197576D01*
X110721893Y-97391081D01*
X110888918Y-97558106D01*
X111082423Y-97693600D01*
X111296507Y-97793430D01*
X111509999Y-97850635D01*
X111510000Y-97850636D01*
X111510000Y-96770000D01*
X112010000Y-96770000D01*
X112010000Y-97850635D01*
X112223492Y-97793430D01*
X112437576Y-97693600D01*
X112631081Y-97558106D01*
X112798106Y-97391081D01*
X112933600Y-97197576D01*
X113033430Y-96983492D01*
X113090636Y-96770000D01*
X112010000Y-96770000D01*
X111510000Y-96770000D01*
X110429364Y-96770000D01*
X108010636Y-96770000D01*
X106930000Y-96770000D01*
X106430000Y-96770000D01*
X105349364Y-96770000D01*
X100000500Y-96770000D01*
X100000500Y-96520000D01*
X133354531Y-96520000D01*
X133374364Y-96746689D01*
X133433261Y-96966497D01*
X133529432Y-97172735D01*
X133659953Y-97359140D01*
X133820859Y-97520046D01*
X134007264Y-97650567D01*
X134007265Y-97650567D01*
X134007266Y-97650568D01*
X134213504Y-97746739D01*
X134433308Y-97805635D01*
X134660000Y-97825468D01*
X134886692Y-97805635D01*
X135106496Y-97746739D01*
X135312734Y-97650568D01*
X135386344Y-97599026D01*
X136434526Y-97599026D01*
X136507515Y-97650133D01*
X136713673Y-97746266D01*
X136933397Y-97805141D01*
X137160000Y-97824966D01*
X137386602Y-97805141D01*
X137606326Y-97746266D01*
X137812480Y-97650134D01*
X137885472Y-97599025D01*
X137160001Y-96873553D01*
X137160000Y-96873553D01*
X136434526Y-97599025D01*
X136434526Y-97599026D01*
X135386344Y-97599026D01*
X135499139Y-97520047D01*
X135660047Y-97359139D01*
X135790568Y-97172734D01*
X135797893Y-97157023D01*
X135843647Y-97104849D01*
X135910273Y-97085428D01*
X135976899Y-97104847D01*
X136022657Y-97157023D01*
X136029866Y-97172483D01*
X136080972Y-97245471D01*
X136080973Y-97245472D01*
X137072318Y-96254127D01*
X137127905Y-96222033D01*
X137192093Y-96222033D01*
X137247680Y-96254127D01*
X138239025Y-97245472D01*
X138290134Y-97172480D01*
X138386266Y-96966326D01*
X138445141Y-96746602D01*
X138464966Y-96519999D01*
X138445141Y-96293397D01*
X138413844Y-96176594D01*
X138412002Y-96120309D01*
X138435243Y-96069014D01*
X138478775Y-96033288D01*
X138533619Y-96020500D01*
X143282256Y-96020500D01*
X143302762Y-96022764D01*
X143305665Y-96022672D01*
X143305667Y-96022673D01*
X143372872Y-96020561D01*
X143376768Y-96020500D01*
X143404349Y-96020500D01*
X143404350Y-96020500D01*
X143408319Y-96019998D01*
X143419965Y-96019080D01*
X143463627Y-96017709D01*
X143482859Y-96012120D01*
X143501918Y-96008174D01*
X143508196Y-96007381D01*
X143521792Y-96005664D01*
X143562407Y-95989582D01*
X143573444Y-95985803D01*
X143615390Y-95973618D01*
X143632629Y-95963422D01*
X143650102Y-95954862D01*
X143668732Y-95947486D01*
X143704064Y-95921814D01*
X143713830Y-95915400D01*
X143751418Y-95893171D01*
X143751417Y-95893171D01*
X143751420Y-95893170D01*
X143765585Y-95879004D01*
X143780373Y-95866373D01*
X143796587Y-95854594D01*
X143824438Y-95820926D01*
X143832279Y-95812309D01*
X145414588Y-94230000D01*
X145989364Y-94230000D01*
X146046569Y-94443492D01*
X146146399Y-94657576D01*
X146281893Y-94851081D01*
X146448918Y-95018106D01*
X146642423Y-95153600D01*
X146856507Y-95253430D01*
X147069999Y-95310635D01*
X147070000Y-95310636D01*
X147070000Y-94230000D01*
X147570000Y-94230000D01*
X147570000Y-95310635D01*
X147783492Y-95253430D01*
X147997576Y-95153600D01*
X148191081Y-95018106D01*
X148358106Y-94851081D01*
X148493600Y-94657576D01*
X148593430Y-94443492D01*
X148650636Y-94230000D01*
X147570000Y-94230000D01*
X147070000Y-94230000D01*
X145989364Y-94230000D01*
X145414588Y-94230000D01*
X145878272Y-93766316D01*
X145918497Y-93739439D01*
X145965950Y-93730000D01*
X148650636Y-93730000D01*
X148650635Y-93729999D01*
X148593430Y-93516507D01*
X148493599Y-93302421D01*
X148358109Y-93108921D01*
X148191081Y-92941893D01*
X148005404Y-92811880D01*
X147966539Y-92767562D01*
X147952528Y-92710305D01*
X147966539Y-92653048D01*
X148005402Y-92608732D01*
X148191401Y-92478495D01*
X148358495Y-92311401D01*
X148494035Y-92117830D01*
X148593903Y-91903663D01*
X148655063Y-91675408D01*
X148675659Y-91440000D01*
X148670167Y-91377233D01*
X148655063Y-91204592D01*
X148639082Y-91144949D01*
X148593903Y-90976337D01*
X148494035Y-90762171D01*
X148358495Y-90568599D01*
X148191401Y-90401505D01*
X148005839Y-90271573D01*
X147966975Y-90227257D01*
X147952964Y-90170000D01*
X147966975Y-90112743D01*
X148005839Y-90068426D01*
X148191401Y-89938495D01*
X148358495Y-89771401D01*
X148494035Y-89577830D01*
X148593903Y-89363663D01*
X148655063Y-89135408D01*
X148675659Y-88900000D01*
X148672140Y-88859784D01*
X148655063Y-88664592D01*
X148622693Y-88543784D01*
X148593903Y-88436337D01*
X148494035Y-88222171D01*
X148358495Y-88028599D01*
X148191401Y-87861505D01*
X148005839Y-87731573D01*
X147966975Y-87687257D01*
X147952964Y-87630000D01*
X147966975Y-87572743D01*
X148005839Y-87528426D01*
X148191401Y-87398495D01*
X148358495Y-87231401D01*
X148494035Y-87037830D01*
X148593903Y-86823663D01*
X148655063Y-86595408D01*
X148675659Y-86360000D01*
X148655063Y-86124592D01*
X148593903Y-85896337D01*
X148494035Y-85682171D01*
X148358495Y-85488599D01*
X148191401Y-85321505D01*
X148005839Y-85191573D01*
X147966975Y-85147257D01*
X147952964Y-85090000D01*
X147966975Y-85032743D01*
X148005839Y-84988426D01*
X148191401Y-84858495D01*
X148358495Y-84691401D01*
X148494035Y-84497830D01*
X148593903Y-84283663D01*
X148655063Y-84055408D01*
X148675659Y-83820000D01*
X148655063Y-83584592D01*
X148593903Y-83356337D01*
X148494035Y-83142171D01*
X148358495Y-82948599D01*
X148191401Y-82781505D01*
X148005839Y-82651573D01*
X147966975Y-82607257D01*
X147952964Y-82550000D01*
X147966975Y-82492743D01*
X148005839Y-82448426D01*
X148191401Y-82318495D01*
X148358495Y-82151401D01*
X148494035Y-81957830D01*
X148593903Y-81743663D01*
X148655063Y-81515408D01*
X148675659Y-81280000D01*
X148655063Y-81044592D01*
X148593903Y-80816337D01*
X148494035Y-80602171D01*
X148358495Y-80408599D01*
X148191401Y-80241505D01*
X148005839Y-80111573D01*
X147966976Y-80067257D01*
X147952965Y-80010000D01*
X147966976Y-79952743D01*
X148005839Y-79908426D01*
X148191401Y-79778495D01*
X148358495Y-79611401D01*
X148494035Y-79417830D01*
X148593903Y-79203663D01*
X148655063Y-78975408D01*
X148675659Y-78740000D01*
X148665346Y-78622130D01*
X148655063Y-78504592D01*
X148644177Y-78463966D01*
X148593903Y-78276337D01*
X148494035Y-78062171D01*
X148358495Y-77868599D01*
X148191401Y-77701505D01*
X148005839Y-77571573D01*
X147966975Y-77527257D01*
X147952964Y-77470000D01*
X147966975Y-77412743D01*
X148005839Y-77368426D01*
X148191401Y-77238495D01*
X148358495Y-77071401D01*
X148494035Y-76877830D01*
X148593903Y-76663663D01*
X148655063Y-76435408D01*
X148675659Y-76200000D01*
X148655063Y-75964592D01*
X148593903Y-75736337D01*
X148494035Y-75522171D01*
X148358495Y-75328599D01*
X148191401Y-75161505D01*
X148005839Y-75031573D01*
X147966975Y-74987257D01*
X147952964Y-74930000D01*
X147966975Y-74872743D01*
X148005839Y-74828426D01*
X148191401Y-74698495D01*
X148358495Y-74531401D01*
X148494035Y-74337830D01*
X148593903Y-74123663D01*
X148655063Y-73895408D01*
X148675659Y-73660000D01*
X148665863Y-73548039D01*
X148655063Y-73424592D01*
X148638150Y-73361472D01*
X148593903Y-73196337D01*
X148494035Y-72982171D01*
X148358495Y-72788599D01*
X148191401Y-72621505D01*
X148005839Y-72491573D01*
X147966975Y-72447257D01*
X147952964Y-72390000D01*
X147966975Y-72332743D01*
X148005839Y-72288426D01*
X148191401Y-72158495D01*
X148358495Y-71991401D01*
X148494035Y-71797830D01*
X148593903Y-71583663D01*
X148655063Y-71355408D01*
X148675659Y-71120000D01*
X148655063Y-70884592D01*
X148593903Y-70656337D01*
X148494035Y-70442171D01*
X148358495Y-70248599D01*
X148191401Y-70081505D01*
X148005839Y-69951573D01*
X147966975Y-69907257D01*
X147952964Y-69850000D01*
X147966975Y-69792743D01*
X148005839Y-69748426D01*
X148191401Y-69618495D01*
X148358495Y-69451401D01*
X148494035Y-69257830D01*
X148593903Y-69043663D01*
X148655063Y-68815408D01*
X148675659Y-68580000D01*
X148673878Y-68559649D01*
X148655063Y-68344592D01*
X148625839Y-68235525D01*
X148593903Y-68116337D01*
X148494035Y-67902171D01*
X148358495Y-67708599D01*
X148236569Y-67586673D01*
X148205273Y-67533927D01*
X148203084Y-67472634D01*
X148230537Y-67417789D01*
X148280916Y-67382810D01*
X148412331Y-67333796D01*
X148527546Y-67247546D01*
X148613796Y-67132331D01*
X148664091Y-66997483D01*
X148670500Y-66937873D01*
X148670499Y-65142128D01*
X148664091Y-65082517D01*
X148613796Y-64947669D01*
X148527546Y-64832454D01*
X148412331Y-64746204D01*
X148277483Y-64695909D01*
X148217873Y-64689500D01*
X148217869Y-64689500D01*
X146422130Y-64689500D01*
X146362515Y-64695909D01*
X146227669Y-64746204D01*
X146112454Y-64832454D01*
X146026204Y-64947668D01*
X145975909Y-65082515D01*
X145975909Y-65082517D01*
X145969783Y-65139500D01*
X145969500Y-65142130D01*
X145969500Y-66937869D01*
X145975909Y-66997483D01*
X146026204Y-67132331D01*
X146112454Y-67247546D01*
X146227669Y-67333796D01*
X146317383Y-67367257D01*
X146359082Y-67382810D01*
X146409462Y-67417789D01*
X146436915Y-67472634D01*
X146434726Y-67533926D01*
X146403431Y-67586673D01*
X146281503Y-67708601D01*
X146145965Y-67902170D01*
X146046097Y-68116336D01*
X145984936Y-68344592D01*
X145964340Y-68579999D01*
X145984936Y-68815407D01*
X146024537Y-68963198D01*
X146046097Y-69043663D01*
X146145965Y-69257830D01*
X146281505Y-69451401D01*
X146448599Y-69618495D01*
X146634160Y-69748426D01*
X146673024Y-69792743D01*
X146687035Y-69850000D01*
X146673024Y-69907257D01*
X146634159Y-69951575D01*
X146448595Y-70081508D01*
X146281505Y-70248598D01*
X146145965Y-70442170D01*
X146046097Y-70656336D01*
X145984936Y-70884592D01*
X145964340Y-71120000D01*
X145984936Y-71355407D01*
X146024537Y-71503198D01*
X146046097Y-71583663D01*
X146145965Y-71797830D01*
X146281505Y-71991401D01*
X146448599Y-72158495D01*
X146634160Y-72288426D01*
X146673024Y-72332743D01*
X146687035Y-72390000D01*
X146673024Y-72447257D01*
X146634158Y-72491575D01*
X146465222Y-72609866D01*
X146448595Y-72621508D01*
X146281505Y-72788598D01*
X146145965Y-72982170D01*
X146046097Y-73196336D01*
X145984936Y-73424592D01*
X145964340Y-73659999D01*
X145984936Y-73895407D01*
X146022191Y-74034444D01*
X146046097Y-74123663D01*
X146145965Y-74337830D01*
X146281505Y-74531401D01*
X146448599Y-74698495D01*
X146634160Y-74828426D01*
X146673024Y-74872743D01*
X146687035Y-74930000D01*
X146673024Y-74987257D01*
X146634159Y-75031575D01*
X146448595Y-75161508D01*
X146281505Y-75328598D01*
X146145965Y-75522170D01*
X146046097Y-75736336D01*
X145984936Y-75964592D01*
X145964340Y-76200000D01*
X145984936Y-76435407D01*
X146023633Y-76579826D01*
X146046097Y-76663663D01*
X146145965Y-76877830D01*
X146281505Y-77071401D01*
X146448599Y-77238495D01*
X146634160Y-77368426D01*
X146673024Y-77412743D01*
X146687035Y-77470000D01*
X146673024Y-77527257D01*
X146634159Y-77571575D01*
X146448595Y-77701508D01*
X146281505Y-77868598D01*
X146145965Y-78062170D01*
X146046097Y-78276336D01*
X145984936Y-78504592D01*
X145964340Y-78739999D01*
X145984936Y-78975407D01*
X146019238Y-79103424D01*
X146046097Y-79203663D01*
X146145965Y-79417830D01*
X146281505Y-79611401D01*
X146448599Y-79778495D01*
X146634160Y-79908426D01*
X146673024Y-79952743D01*
X146687035Y-80010000D01*
X146673024Y-80067257D01*
X146634159Y-80111575D01*
X146448595Y-80241508D01*
X146281505Y-80408598D01*
X146145965Y-80602170D01*
X146046097Y-80816336D01*
X145984936Y-81044592D01*
X145964340Y-81280000D01*
X145984936Y-81515407D01*
X146021156Y-81650582D01*
X146046097Y-81743663D01*
X146145965Y-81957830D01*
X146281505Y-82151401D01*
X146448599Y-82318495D01*
X146634160Y-82448426D01*
X146673024Y-82492743D01*
X146687035Y-82550000D01*
X146673024Y-82607257D01*
X146634158Y-82651575D01*
X146457200Y-82775483D01*
X146448595Y-82781508D01*
X146281505Y-82948598D01*
X146145965Y-83142170D01*
X146046097Y-83356336D01*
X145984936Y-83584592D01*
X145964340Y-83820000D01*
X145984936Y-84055407D01*
X146017307Y-84176215D01*
X146046097Y-84283663D01*
X146145965Y-84497830D01*
X146281505Y-84691401D01*
X146448599Y-84858495D01*
X146634160Y-84988426D01*
X146673024Y-85032743D01*
X146687035Y-85090000D01*
X146673024Y-85147257D01*
X146634159Y-85191575D01*
X146448595Y-85321508D01*
X146281505Y-85488598D01*
X146145965Y-85682170D01*
X146046097Y-85896336D01*
X145984936Y-86124592D01*
X145963401Y-86370729D01*
X145938249Y-86435408D01*
X145882283Y-86476443D01*
X145813034Y-86480982D01*
X145752192Y-86447602D01*
X143621347Y-84316757D01*
X143589477Y-84261993D01*
X143588823Y-84198638D01*
X143626134Y-84051305D01*
X143645300Y-83820000D01*
X143626134Y-83588695D01*
X143569157Y-83363700D01*
X143475924Y-83151151D01*
X143348979Y-82956847D01*
X143191784Y-82786087D01*
X143008626Y-82643530D01*
X142804503Y-82533064D01*
X142804499Y-82533062D01*
X142804498Y-82533062D01*
X142584984Y-82457702D01*
X142413282Y-82429050D01*
X142356049Y-82419500D01*
X142123951Y-82419500D01*
X142078164Y-82427140D01*
X141895015Y-82457702D01*
X141675501Y-82533062D01*
X141471372Y-82643531D01*
X141288215Y-82786087D01*
X141131020Y-82956848D01*
X141004076Y-83151150D01*
X140910844Y-83363696D01*
X140910842Y-83363700D01*
X140910843Y-83363700D01*
X140858601Y-83570000D01*
X140853865Y-83588700D01*
X140834699Y-83820000D01*
X140853865Y-84051299D01*
X140853865Y-84051301D01*
X140853866Y-84051305D01*
X140908361Y-84266497D01*
X140910844Y-84276303D01*
X140928589Y-84316757D01*
X141004076Y-84488849D01*
X141131021Y-84683153D01*
X141225803Y-84786114D01*
X141254575Y-84838865D01*
X141255168Y-84898951D01*
X141227441Y-84952261D01*
X141177906Y-84986276D01*
X141097671Y-85016202D01*
X140982454Y-85102454D01*
X140896204Y-85217668D01*
X140845909Y-85352516D01*
X140839500Y-85412130D01*
X140839500Y-87307869D01*
X140845909Y-87367483D01*
X140896204Y-87502331D01*
X140982454Y-87617546D01*
X141097669Y-87703796D01*
X141232517Y-87754091D01*
X141292127Y-87760500D01*
X143187872Y-87760499D01*
X143247483Y-87754091D01*
X143382331Y-87703796D01*
X143497546Y-87617546D01*
X143583796Y-87502331D01*
X143634091Y-87367483D01*
X143640500Y-87307873D01*
X143640499Y-86404449D01*
X143654014Y-86348156D01*
X143691614Y-86304133D01*
X143745101Y-86281978D01*
X143802817Y-86286520D01*
X143852179Y-86316769D01*
X144671677Y-87136268D01*
X145483181Y-87947772D01*
X145510061Y-87988000D01*
X145519500Y-88035453D01*
X145519500Y-90182256D01*
X145517235Y-90202762D01*
X145519439Y-90272873D01*
X145519500Y-90276768D01*
X145519500Y-90304349D01*
X145520003Y-90308334D01*
X145520918Y-90319967D01*
X145522290Y-90363626D01*
X145527879Y-90382860D01*
X145531825Y-90401916D01*
X145534335Y-90421792D01*
X145550414Y-90462404D01*
X145554197Y-90473451D01*
X145566382Y-90515391D01*
X145576580Y-90532635D01*
X145585136Y-90550100D01*
X145592514Y-90568732D01*
X145603066Y-90583256D01*
X145618180Y-90604059D01*
X145624593Y-90613822D01*
X145646826Y-90651416D01*
X145646829Y-90651419D01*
X145646830Y-90651420D01*
X145660995Y-90665585D01*
X145673627Y-90680375D01*
X145685406Y-90696587D01*
X145719058Y-90724426D01*
X145727699Y-90732289D01*
X145979762Y-90984352D01*
X146011856Y-91039939D01*
X146011856Y-91104126D01*
X145984936Y-91204593D01*
X145964340Y-91440000D01*
X145984936Y-91675405D01*
X146011856Y-91775871D01*
X146011856Y-91840058D01*
X145979762Y-91895646D01*
X143142228Y-94733181D01*
X143102000Y-94760061D01*
X143054547Y-94769500D01*
X135867740Y-94769500D01*
X135847236Y-94767236D01*
X135777144Y-94769439D01*
X135773250Y-94769500D01*
X135745648Y-94769500D01*
X135741653Y-94770004D01*
X135730029Y-94770918D01*
X135686368Y-94772290D01*
X135667128Y-94777880D01*
X135648081Y-94781825D01*
X135628209Y-94784335D01*
X135587599Y-94800413D01*
X135576554Y-94804194D01*
X135534611Y-94816380D01*
X135517369Y-94826578D01*
X135499897Y-94835138D01*
X135481266Y-94842514D01*
X135445938Y-94868181D01*
X135436180Y-94874591D01*
X135398579Y-94896829D01*
X135384410Y-94910998D01*
X135369622Y-94923628D01*
X135353413Y-94935405D01*
X135325572Y-94969058D01*
X135317711Y-94977696D01*
X135074821Y-95220586D01*
X135019234Y-95252680D01*
X134955047Y-95252680D01*
X134886690Y-95234364D01*
X134659999Y-95214531D01*
X134433310Y-95234364D01*
X134213502Y-95293261D01*
X134007264Y-95389432D01*
X133820859Y-95519953D01*
X133659953Y-95680859D01*
X133529432Y-95867264D01*
X133433261Y-96073502D01*
X133374364Y-96293310D01*
X133354531Y-96520000D01*
X100000500Y-96520000D01*
X100000500Y-96270000D01*
X105349364Y-96270000D01*
X106430000Y-96270000D01*
X106430000Y-95189364D01*
X106930000Y-95189364D01*
X106930000Y-96270000D01*
X108010636Y-96270000D01*
X110429364Y-96270000D01*
X111510000Y-96270000D01*
X111510000Y-95189364D01*
X112010000Y-95189364D01*
X112010000Y-96270000D01*
X113090636Y-96270000D01*
X113090635Y-96269999D01*
X113033430Y-96056507D01*
X112933599Y-95842421D01*
X112798109Y-95648921D01*
X112631081Y-95481893D01*
X112437576Y-95346399D01*
X112223492Y-95246569D01*
X112010000Y-95189364D01*
X111510000Y-95189364D01*
X111509999Y-95189364D01*
X111296507Y-95246569D01*
X111082421Y-95346400D01*
X110888921Y-95481890D01*
X110721890Y-95648921D01*
X110586400Y-95842421D01*
X110486569Y-96056507D01*
X110429364Y-96269999D01*
X110429364Y-96270000D01*
X108010636Y-96270000D01*
X108010635Y-96269999D01*
X107953430Y-96056507D01*
X107853599Y-95842421D01*
X107718109Y-95648921D01*
X107551081Y-95481893D01*
X107357576Y-95346399D01*
X107143492Y-95246569D01*
X106930000Y-95189364D01*
X106430000Y-95189364D01*
X106429999Y-95189364D01*
X106216507Y-95246569D01*
X106002421Y-95346400D01*
X105808921Y-95481890D01*
X105641890Y-95648921D01*
X105506400Y-95842421D01*
X105406569Y-96056507D01*
X105349364Y-96269999D01*
X105349364Y-96270000D01*
X100000500Y-96270000D01*
X100000500Y-91690000D01*
X100669364Y-91690000D01*
X100726569Y-91903492D01*
X100826399Y-92117576D01*
X100961893Y-92311081D01*
X101128918Y-92478106D01*
X101322423Y-92613600D01*
X101536507Y-92713430D01*
X101749999Y-92770635D01*
X101750000Y-92770636D01*
X101750000Y-91690000D01*
X100669364Y-91690000D01*
X100000500Y-91690000D01*
X100000500Y-88899999D01*
X100644340Y-88899999D01*
X100664936Y-89135407D01*
X100703526Y-89279426D01*
X100726097Y-89363663D01*
X100825965Y-89577830D01*
X100961505Y-89771401D01*
X101128599Y-89938495D01*
X101314597Y-90068732D01*
X101353460Y-90113048D01*
X101367471Y-90170305D01*
X101353461Y-90227561D01*
X101314595Y-90271880D01*
X101128919Y-90401892D01*
X100961890Y-90568921D01*
X100826400Y-90762421D01*
X100726569Y-90976507D01*
X100669364Y-91189999D01*
X100669364Y-91190000D01*
X102126000Y-91190000D01*
X102188000Y-91206613D01*
X102233387Y-91252000D01*
X102250000Y-91314000D01*
X102250000Y-92770635D01*
X102463492Y-92713430D01*
X102677576Y-92613600D01*
X102871081Y-92478106D01*
X103038106Y-92311081D01*
X103173600Y-92117576D01*
X103273430Y-91903492D01*
X103334569Y-91675318D01*
X103343341Y-91575055D01*
X103366145Y-91513539D01*
X103417144Y-91472269D01*
X103482064Y-91462796D01*
X103542730Y-91487775D01*
X103582159Y-91540209D01*
X103587514Y-91553732D01*
X103587515Y-91553733D01*
X103613180Y-91589059D01*
X103619593Y-91598822D01*
X103641826Y-91636416D01*
X103641829Y-91636419D01*
X103641830Y-91636420D01*
X103655995Y-91650585D01*
X103668627Y-91665375D01*
X103680406Y-91681587D01*
X103714058Y-91709426D01*
X103722699Y-91717289D01*
X105244197Y-93238787D01*
X105257098Y-93254889D01*
X105259212Y-93256874D01*
X105259214Y-93256877D01*
X105306561Y-93301339D01*
X105308240Y-93302916D01*
X105311036Y-93305626D01*
X105330530Y-93325120D01*
X105333704Y-93327582D01*
X105342568Y-93335153D01*
X105374418Y-93365062D01*
X105384914Y-93370832D01*
X105391974Y-93374714D01*
X105408231Y-93385392D01*
X105424064Y-93397674D01*
X105440185Y-93404649D01*
X105464156Y-93415023D01*
X105474643Y-93420160D01*
X105512908Y-93441197D01*
X105532316Y-93446180D01*
X105550710Y-93452478D01*
X105569105Y-93460438D01*
X105612254Y-93467271D01*
X105623680Y-93469638D01*
X105639222Y-93473629D01*
X105665980Y-93480500D01*
X105665981Y-93480500D01*
X105686016Y-93480500D01*
X105705413Y-93482026D01*
X105725196Y-93485160D01*
X105768674Y-93481050D01*
X105780344Y-93480500D01*
X120545863Y-93480500D01*
X120600707Y-93493288D01*
X120644239Y-93529013D01*
X120667480Y-93580309D01*
X120665638Y-93636593D01*
X120634364Y-93753308D01*
X120614531Y-93980000D01*
X120634364Y-94206689D01*
X120693261Y-94426497D01*
X120789432Y-94632735D01*
X120919953Y-94819140D01*
X121080859Y-94980046D01*
X121267264Y-95110567D01*
X121267265Y-95110567D01*
X121267266Y-95110568D01*
X121473504Y-95206739D01*
X121693308Y-95265635D01*
X121920000Y-95285468D01*
X122146692Y-95265635D01*
X122366496Y-95206739D01*
X122572734Y-95110568D01*
X122759139Y-94980047D01*
X122920047Y-94819139D01*
X123050568Y-94632734D01*
X123146739Y-94426496D01*
X123205635Y-94206692D01*
X123225468Y-93980000D01*
X123205635Y-93753308D01*
X123199390Y-93730000D01*
X123174362Y-93636593D01*
X123172520Y-93580309D01*
X123195761Y-93529013D01*
X123239293Y-93493288D01*
X123294137Y-93480500D01*
X128104547Y-93480500D01*
X128152000Y-93489939D01*
X128192228Y-93516819D01*
X128240586Y-93565177D01*
X128272680Y-93620764D01*
X128272680Y-93684950D01*
X128254364Y-93753307D01*
X128234531Y-93980000D01*
X128254364Y-94206689D01*
X128313261Y-94426497D01*
X128409432Y-94632735D01*
X128539953Y-94819140D01*
X128700859Y-94980046D01*
X128887264Y-95110567D01*
X128887265Y-95110567D01*
X128887266Y-95110568D01*
X129093504Y-95206739D01*
X129313308Y-95265635D01*
X129540000Y-95285468D01*
X129766692Y-95265635D01*
X129986496Y-95206739D01*
X130192734Y-95110568D01*
X130379139Y-94980047D01*
X130540047Y-94819139D01*
X130670568Y-94632734D01*
X130766739Y-94426496D01*
X130825635Y-94206692D01*
X130845468Y-93980000D01*
X130825635Y-93753308D01*
X130766739Y-93533504D01*
X130670568Y-93327266D01*
X130669065Y-93325120D01*
X130540046Y-93140859D01*
X130379140Y-92979953D01*
X130192732Y-92849430D01*
X130134724Y-92822380D01*
X130082549Y-92776623D01*
X130063130Y-92709997D01*
X130082550Y-92643373D01*
X130134721Y-92597619D01*
X130192734Y-92570568D01*
X130379139Y-92440047D01*
X130540047Y-92279139D01*
X130670568Y-92092734D01*
X130766739Y-91886496D01*
X130825635Y-91666692D01*
X130845468Y-91440000D01*
X130825635Y-91213308D01*
X130766739Y-90993504D01*
X130670568Y-90787266D01*
X130669507Y-90785751D01*
X130540046Y-90600859D01*
X130379140Y-90439953D01*
X130192733Y-90309431D01*
X130134725Y-90282382D01*
X130082549Y-90236625D01*
X130063129Y-90170000D01*
X130082549Y-90103375D01*
X130134725Y-90057618D01*
X130192734Y-90030568D01*
X130379139Y-89900047D01*
X130540047Y-89739139D01*
X130670568Y-89552734D01*
X130766739Y-89346496D01*
X130825635Y-89126692D01*
X130845468Y-88900000D01*
X130825635Y-88673308D01*
X130766739Y-88453504D01*
X130670568Y-88247266D01*
X130652996Y-88222171D01*
X130620316Y-88175499D01*
X131174540Y-88175499D01*
X131194326Y-88363757D01*
X131252820Y-88543784D01*
X131347466Y-88707716D01*
X131423683Y-88792364D01*
X131444276Y-88823713D01*
X131454554Y-88859784D01*
X131455000Y-88863312D01*
X131455918Y-88874967D01*
X131457290Y-88918626D01*
X131462879Y-88937860D01*
X131466825Y-88956916D01*
X131469335Y-88976792D01*
X131485414Y-89017404D01*
X131489197Y-89028451D01*
X131501382Y-89070391D01*
X131511580Y-89087635D01*
X131520136Y-89105100D01*
X131527514Y-89123732D01*
X131529665Y-89126692D01*
X131553180Y-89159059D01*
X131559593Y-89168822D01*
X131581826Y-89206416D01*
X131581829Y-89206419D01*
X131581830Y-89206420D01*
X131595995Y-89220585D01*
X131608627Y-89235375D01*
X131620406Y-89251587D01*
X131654058Y-89279426D01*
X131662699Y-89287289D01*
X133400586Y-91025176D01*
X133432680Y-91080763D01*
X133432680Y-91144949D01*
X133414364Y-91213307D01*
X133394531Y-91440000D01*
X133414364Y-91666689D01*
X133473261Y-91886497D01*
X133569432Y-92092735D01*
X133699953Y-92279140D01*
X133860859Y-92440046D01*
X134047264Y-92570567D01*
X134047265Y-92570567D01*
X134047266Y-92570568D01*
X134253504Y-92666739D01*
X134473308Y-92725635D01*
X134700000Y-92745468D01*
X134926692Y-92725635D01*
X135146496Y-92666739D01*
X135352734Y-92570568D01*
X135426344Y-92519026D01*
X138974526Y-92519026D01*
X139047515Y-92570133D01*
X139253673Y-92666266D01*
X139473397Y-92725141D01*
X139700000Y-92744966D01*
X139926602Y-92725141D01*
X140146326Y-92666266D01*
X140352480Y-92570134D01*
X140425472Y-92519025D01*
X139700001Y-91793553D01*
X139700000Y-91793553D01*
X138974526Y-92519025D01*
X138974526Y-92519026D01*
X135426344Y-92519026D01*
X135539139Y-92440047D01*
X135700047Y-92279139D01*
X135830568Y-92092734D01*
X135926739Y-91886496D01*
X135985635Y-91666692D01*
X136005468Y-91440000D01*
X136005468Y-91439999D01*
X138395033Y-91439999D01*
X138414858Y-91666602D01*
X138473733Y-91886326D01*
X138569866Y-92092484D01*
X138620972Y-92165471D01*
X138620974Y-92165472D01*
X139346446Y-91440001D01*
X140053553Y-91440001D01*
X140779025Y-92165472D01*
X140830134Y-92092480D01*
X140926266Y-91886326D01*
X140985141Y-91666602D01*
X141004966Y-91440000D01*
X140985141Y-91213397D01*
X140926266Y-90993673D01*
X140830133Y-90787515D01*
X140779025Y-90714526D01*
X140053553Y-91440000D01*
X140053553Y-91440001D01*
X139346446Y-91440001D01*
X139346446Y-91439999D01*
X138620973Y-90714526D01*
X138620973Y-90714527D01*
X138569865Y-90787516D01*
X138473733Y-90993672D01*
X138414858Y-91213397D01*
X138395033Y-91439999D01*
X136005468Y-91439999D01*
X135985635Y-91213308D01*
X135926739Y-90993504D01*
X135830568Y-90787266D01*
X135829507Y-90785751D01*
X135700046Y-90600859D01*
X135539140Y-90439953D01*
X135426344Y-90360973D01*
X138974526Y-90360973D01*
X139700000Y-91086446D01*
X139700001Y-91086446D01*
X140425472Y-90360974D01*
X140425471Y-90360972D01*
X140352484Y-90309866D01*
X140146326Y-90213733D01*
X139926602Y-90154858D01*
X139700000Y-90135033D01*
X139473397Y-90154858D01*
X139253672Y-90213733D01*
X139047516Y-90309865D01*
X138974527Y-90360973D01*
X138974526Y-90360973D01*
X135426344Y-90360973D01*
X135352735Y-90309432D01*
X135146497Y-90213261D01*
X134926689Y-90154364D01*
X134700000Y-90134531D01*
X134473307Y-90154364D01*
X134404950Y-90172680D01*
X134340764Y-90172680D01*
X134285177Y-90140586D01*
X132894371Y-88749780D01*
X132865530Y-88704509D01*
X132858524Y-88651291D01*
X132874666Y-88600098D01*
X132907178Y-88543785D01*
X132907179Y-88543784D01*
X132965674Y-88363756D01*
X132985460Y-88175500D01*
X132965674Y-87987244D01*
X132907179Y-87807216D01*
X132907179Y-87807215D01*
X132812533Y-87643283D01*
X132685870Y-87502610D01*
X132532730Y-87391348D01*
X132359802Y-87314355D01*
X132174648Y-87275000D01*
X132174646Y-87275000D01*
X131985354Y-87275000D01*
X131985352Y-87275000D01*
X131800197Y-87314355D01*
X131627269Y-87391348D01*
X131474129Y-87502610D01*
X131347466Y-87643283D01*
X131252820Y-87807215D01*
X131194326Y-87987242D01*
X131174540Y-88175499D01*
X130620316Y-88175499D01*
X130540046Y-88060859D01*
X130379140Y-87899953D01*
X130192733Y-87769431D01*
X130134725Y-87742382D01*
X130082549Y-87696625D01*
X130063129Y-87630000D01*
X130082549Y-87563375D01*
X130134725Y-87517618D01*
X130192734Y-87490568D01*
X130379139Y-87360047D01*
X130540047Y-87199139D01*
X130652612Y-87038377D01*
X130696931Y-86999511D01*
X130754188Y-86985500D01*
X132009151Y-86985500D01*
X132032385Y-86987696D01*
X132040412Y-86989227D01*
X132095759Y-86985745D01*
X132103545Y-86985500D01*
X132119351Y-86985500D01*
X132123582Y-86984965D01*
X132135036Y-86983517D01*
X132142738Y-86982788D01*
X132198138Y-86979304D01*
X132205902Y-86976781D01*
X132228676Y-86971689D01*
X132236792Y-86970664D01*
X132288396Y-86950231D01*
X132295671Y-86947612D01*
X132348441Y-86930467D01*
X132355337Y-86926090D01*
X132376132Y-86915494D01*
X132383732Y-86912486D01*
X132428624Y-86879869D01*
X132435026Y-86875517D01*
X132481877Y-86845786D01*
X132487461Y-86839838D01*
X132504979Y-86824394D01*
X132511587Y-86819594D01*
X132511588Y-86819591D01*
X132511590Y-86819591D01*
X132546938Y-86776861D01*
X132552080Y-86771027D01*
X132590062Y-86730582D01*
X132593999Y-86723418D01*
X132607119Y-86704114D01*
X132612324Y-86697823D01*
X132635942Y-86647630D01*
X132639467Y-86640711D01*
X132666197Y-86592092D01*
X132668228Y-86584177D01*
X132676132Y-86562223D01*
X132679614Y-86554826D01*
X132690010Y-86500325D01*
X132691698Y-86492768D01*
X132705500Y-86439019D01*
X132705500Y-86430849D01*
X132707696Y-86407615D01*
X132709227Y-86399587D01*
X132705745Y-86344241D01*
X132705500Y-86336455D01*
X132705500Y-81978687D01*
X132713736Y-81934249D01*
X132737347Y-81895717D01*
X132812533Y-81812216D01*
X132819653Y-81799885D01*
X132907179Y-81648284D01*
X132933383Y-81567637D01*
X132965674Y-81468256D01*
X132985460Y-81280000D01*
X132965674Y-81091744D01*
X132907179Y-80911716D01*
X132907179Y-80911715D01*
X132812533Y-80747783D01*
X132685870Y-80607110D01*
X132532730Y-80495848D01*
X132359802Y-80418855D01*
X132174648Y-80379500D01*
X132174646Y-80379500D01*
X132071800Y-80379500D01*
X132009800Y-80362887D01*
X131964413Y-80317500D01*
X131947800Y-80255500D01*
X131947800Y-76474050D01*
X131950063Y-76453546D01*
X131949219Y-76426692D01*
X131947861Y-76383454D01*
X131947800Y-76379560D01*
X131947800Y-76351966D01*
X131947800Y-76351959D01*
X131947295Y-76347962D01*
X131946380Y-76336332D01*
X131945009Y-76292682D01*
X131939420Y-76273449D01*
X131935474Y-76254391D01*
X131932964Y-76234515D01*
X131916888Y-76193913D01*
X131913104Y-76182862D01*
X131907181Y-76162477D01*
X131900918Y-76140919D01*
X131890714Y-76123664D01*
X131882161Y-76106204D01*
X131874786Y-76087578D01*
X131874786Y-76087577D01*
X131849108Y-76052234D01*
X131842701Y-76042480D01*
X131835032Y-76029513D01*
X131820470Y-76004889D01*
X131806306Y-75990725D01*
X131793667Y-75975926D01*
X131781895Y-75959722D01*
X131748241Y-75931882D01*
X131739599Y-75924018D01*
X131635753Y-75820172D01*
X131614190Y-75798608D01*
X131582675Y-75745108D01*
X131581050Y-75683034D01*
X131609721Y-75627958D01*
X131692231Y-75536323D01*
X131786877Y-75372391D01*
X131845372Y-75192363D01*
X131865158Y-75004107D01*
X131845372Y-74815851D01*
X131815030Y-74722470D01*
X131786877Y-74635822D01*
X131692233Y-74471893D01*
X131658306Y-74434214D01*
X131617045Y-74388389D01*
X131593434Y-74349858D01*
X131585198Y-74305420D01*
X131585198Y-73571447D01*
X131587461Y-73550943D01*
X131586281Y-73513397D01*
X131585259Y-73480851D01*
X131585198Y-73476957D01*
X131585198Y-73449364D01*
X131585198Y-73449357D01*
X131584693Y-73445360D01*
X131583778Y-73433730D01*
X131583491Y-73424592D01*
X131582407Y-73390079D01*
X131576817Y-73370841D01*
X131572872Y-73351789D01*
X131570362Y-73331915D01*
X131570361Y-73331914D01*
X131554276Y-73291288D01*
X131550503Y-73280267D01*
X131538315Y-73238317D01*
X131528119Y-73221076D01*
X131519561Y-73203609D01*
X131512184Y-73184975D01*
X131486496Y-73149619D01*
X131480107Y-73139891D01*
X131457868Y-73102286D01*
X131443704Y-73088122D01*
X131431067Y-73073327D01*
X131419293Y-73057121D01*
X131419292Y-73057120D01*
X131385633Y-73029275D01*
X131377003Y-73021421D01*
X130515065Y-72159483D01*
X130482971Y-72103895D01*
X130482972Y-72039707D01*
X130515064Y-71984121D01*
X130540047Y-71959139D01*
X130670568Y-71772734D01*
X130766739Y-71566496D01*
X130825635Y-71346692D01*
X130845468Y-71120000D01*
X130825635Y-70893308D01*
X130784178Y-70738591D01*
X130783035Y-70679031D01*
X130809799Y-70625809D01*
X130858295Y-70591211D01*
X130862396Y-70589586D01*
X130873444Y-70585803D01*
X130915390Y-70573618D01*
X130932629Y-70563422D01*
X130950102Y-70554862D01*
X130968732Y-70547486D01*
X131004064Y-70521814D01*
X131013830Y-70515400D01*
X131051418Y-70493171D01*
X131051417Y-70493171D01*
X131051420Y-70493170D01*
X131065585Y-70479004D01*
X131080373Y-70466373D01*
X131096587Y-70454594D01*
X131124438Y-70420926D01*
X131132279Y-70412309D01*
X132027771Y-69516819D01*
X132068000Y-69489939D01*
X132115453Y-69480500D01*
X132174648Y-69480500D01*
X132311547Y-69451401D01*
X132359803Y-69441144D01*
X132532730Y-69364151D01*
X132679073Y-69257827D01*
X132685870Y-69252889D01*
X132812533Y-69112216D01*
X132907179Y-68948284D01*
X132950353Y-68815408D01*
X132965674Y-68768256D01*
X132985460Y-68580000D01*
X132965674Y-68391744D01*
X132935332Y-68298363D01*
X132907179Y-68211715D01*
X132812533Y-68047783D01*
X132685870Y-67907110D01*
X132532730Y-67795848D01*
X132359802Y-67718855D01*
X132174648Y-67679500D01*
X132174646Y-67679500D01*
X131985354Y-67679500D01*
X131985352Y-67679500D01*
X131800197Y-67718855D01*
X131627269Y-67795848D01*
X131474129Y-67907110D01*
X131347466Y-68047783D01*
X131252820Y-68211715D01*
X131194326Y-68391742D01*
X131176679Y-68559649D01*
X131165279Y-68600070D01*
X131141039Y-68634368D01*
X131052819Y-68722588D01*
X131001392Y-68753489D01*
X130941477Y-68756629D01*
X130887102Y-68731273D01*
X130850995Y-68683357D01*
X130841610Y-68624099D01*
X130845468Y-68579999D01*
X130838555Y-68500981D01*
X130825635Y-68353308D01*
X130766739Y-68133504D01*
X130670568Y-67927266D01*
X130656456Y-67907112D01*
X130540046Y-67740859D01*
X130379140Y-67579953D01*
X130192733Y-67449431D01*
X130134725Y-67422382D01*
X130082549Y-67376625D01*
X130063129Y-67310000D01*
X130082549Y-67243375D01*
X130134725Y-67197618D01*
X130159835Y-67185909D01*
X130192734Y-67170568D01*
X130379139Y-67040047D01*
X130540047Y-66879139D01*
X130670568Y-66692734D01*
X130766739Y-66486496D01*
X130825635Y-66266692D01*
X130845468Y-66040000D01*
X130825635Y-65813308D01*
X130766739Y-65593504D01*
X130670568Y-65387266D01*
X130659284Y-65371151D01*
X130540046Y-65200859D01*
X130379140Y-65039953D01*
X130192736Y-64909433D01*
X130134725Y-64882382D01*
X130134132Y-64882105D01*
X130081958Y-64836348D01*
X130062539Y-64769723D01*
X130081959Y-64703098D01*
X130134135Y-64657342D01*
X130192479Y-64630135D01*
X130378819Y-64499658D01*
X130539658Y-64338819D01*
X130670134Y-64152480D01*
X130766266Y-63946326D01*
X130818872Y-63750000D01*
X128261128Y-63750000D01*
X128313733Y-63946326D01*
X128409865Y-64152480D01*
X128540341Y-64338819D01*
X128701180Y-64499658D01*
X128887519Y-64630134D01*
X128945865Y-64657342D01*
X128998040Y-64703099D01*
X129017460Y-64769723D01*
X128998041Y-64836348D01*
X128945866Y-64882105D01*
X128887267Y-64909430D01*
X128700859Y-65039953D01*
X128539953Y-65200859D01*
X128409432Y-65387264D01*
X128313261Y-65593502D01*
X128254364Y-65813310D01*
X128234531Y-66040000D01*
X128254364Y-66266689D01*
X128313261Y-66486497D01*
X128409432Y-66692735D01*
X128539953Y-66879140D01*
X128700859Y-67040046D01*
X128832656Y-67132330D01*
X128887266Y-67170568D01*
X128920165Y-67185909D01*
X128945275Y-67197618D01*
X128997450Y-67243375D01*
X129016869Y-67310000D01*
X128997450Y-67376625D01*
X128945275Y-67422382D01*
X128887263Y-67449433D01*
X128700859Y-67579953D01*
X128539953Y-67740859D01*
X128409432Y-67927264D01*
X128313261Y-68133502D01*
X128254364Y-68353310D01*
X128234531Y-68580000D01*
X128254364Y-68806689D01*
X128313261Y-69026497D01*
X128390948Y-69193095D01*
X128402301Y-69253610D01*
X128383147Y-69312125D01*
X128338209Y-69354214D01*
X128278566Y-69369500D01*
X128207740Y-69369500D01*
X128187236Y-69367236D01*
X128117144Y-69369439D01*
X128113250Y-69369500D01*
X128085648Y-69369500D01*
X128081653Y-69370004D01*
X128070029Y-69370918D01*
X128026368Y-69372290D01*
X128007128Y-69377880D01*
X127988081Y-69381825D01*
X127968209Y-69384335D01*
X127927599Y-69400413D01*
X127916554Y-69404194D01*
X127874611Y-69416380D01*
X127857369Y-69426578D01*
X127839897Y-69435138D01*
X127821266Y-69442514D01*
X127785938Y-69468181D01*
X127776180Y-69474591D01*
X127738579Y-69496829D01*
X127724410Y-69510998D01*
X127709622Y-69523628D01*
X127693413Y-69535405D01*
X127665572Y-69569058D01*
X127657711Y-69577696D01*
X127052228Y-70183181D01*
X127012000Y-70210061D01*
X126964547Y-70219500D01*
X126905352Y-70219500D01*
X126720197Y-70258855D01*
X126547269Y-70335848D01*
X126394129Y-70447110D01*
X126267466Y-70587783D01*
X126172820Y-70751715D01*
X126114326Y-70931742D01*
X126094540Y-71120000D01*
X126114326Y-71308257D01*
X126172820Y-71488284D01*
X126267464Y-71652213D01*
X126267467Y-71652216D01*
X126312769Y-71702528D01*
X126340050Y-71752154D01*
X126342422Y-71808735D01*
X126319388Y-71860470D01*
X126275753Y-71896568D01*
X126220618Y-71909500D01*
X123181434Y-71909500D01*
X123121791Y-71894214D01*
X123076853Y-71852125D01*
X123057699Y-71793610D01*
X123069052Y-71733095D01*
X123106768Y-71652213D01*
X123146739Y-71566496D01*
X123205635Y-71346692D01*
X123225468Y-71120000D01*
X123205635Y-70893308D01*
X123146739Y-70673504D01*
X123050568Y-70467266D01*
X123041694Y-70454593D01*
X122920046Y-70280859D01*
X122759140Y-70119953D01*
X122572733Y-69989431D01*
X122514725Y-69962382D01*
X122462549Y-69916625D01*
X122443129Y-69850000D01*
X122462549Y-69783375D01*
X122514725Y-69737618D01*
X122572734Y-69710568D01*
X122759139Y-69580047D01*
X122920047Y-69419139D01*
X123050568Y-69232734D01*
X123146739Y-69026496D01*
X123205635Y-68806692D01*
X123225468Y-68580000D01*
X123205635Y-68353308D01*
X123146739Y-68133504D01*
X123050568Y-67927266D01*
X123036456Y-67907112D01*
X122920046Y-67740859D01*
X122759140Y-67579953D01*
X122572733Y-67449431D01*
X122514725Y-67422382D01*
X122462549Y-67376625D01*
X122443129Y-67310000D01*
X122462549Y-67243375D01*
X122514725Y-67197618D01*
X122539835Y-67185909D01*
X122572734Y-67170568D01*
X122759139Y-67040047D01*
X122920047Y-66879139D01*
X123050568Y-66692734D01*
X123146739Y-66486496D01*
X123205635Y-66266692D01*
X123225468Y-66040000D01*
X123205635Y-65813308D01*
X123146739Y-65593504D01*
X123050568Y-65387266D01*
X123039284Y-65371151D01*
X122920046Y-65200859D01*
X122759140Y-65039953D01*
X122572733Y-64909431D01*
X122514725Y-64882382D01*
X122462549Y-64836625D01*
X122443129Y-64770000D01*
X122462549Y-64703375D01*
X122514725Y-64657618D01*
X122515317Y-64657342D01*
X122572734Y-64630568D01*
X122759139Y-64500047D01*
X122920047Y-64339139D01*
X123050568Y-64152734D01*
X123146739Y-63946496D01*
X123205635Y-63726692D01*
X123225468Y-63500000D01*
X123205635Y-63273308D01*
X123146739Y-63053504D01*
X123050568Y-62847266D01*
X122920270Y-62661180D01*
X122920046Y-62660859D01*
X122759140Y-62499953D01*
X122734537Y-62482726D01*
X122695399Y-62437884D01*
X122681666Y-62379970D01*
X122696500Y-62322328D01*
X122736485Y-62278239D01*
X122792406Y-62257861D01*
X122827483Y-62254091D01*
X122962331Y-62203796D01*
X123077546Y-62117546D01*
X123163796Y-62002331D01*
X123214091Y-61867483D01*
X123220500Y-61807873D01*
X123220499Y-60584499D01*
X123237112Y-60522500D01*
X123282499Y-60477113D01*
X123344499Y-60460500D01*
X128165863Y-60460500D01*
X128220707Y-60473288D01*
X128264239Y-60509013D01*
X128287480Y-60560309D01*
X128285638Y-60616593D01*
X128254364Y-60733308D01*
X128234531Y-60959999D01*
X128254364Y-61186689D01*
X128313261Y-61406497D01*
X128409432Y-61612735D01*
X128539953Y-61799140D01*
X128700859Y-61960046D01*
X128887264Y-62090567D01*
X128887265Y-62090567D01*
X128887266Y-62090568D01*
X128945865Y-62117893D01*
X128998040Y-62163650D01*
X129017460Y-62230274D01*
X128998041Y-62296899D01*
X128945866Y-62342656D01*
X128887522Y-62369863D01*
X128701180Y-62500341D01*
X128540341Y-62661180D01*
X128409865Y-62847519D01*
X128313733Y-63053673D01*
X128261128Y-63249999D01*
X128261128Y-63250000D01*
X130843074Y-63250000D01*
X130843697Y-63249543D01*
X130912948Y-63245003D01*
X130973792Y-63278383D01*
X133958181Y-66262772D01*
X133985061Y-66303000D01*
X133994500Y-66350453D01*
X133994500Y-82492186D01*
X133977023Y-82555659D01*
X133929518Y-82601240D01*
X133851377Y-82643528D01*
X133851375Y-82643529D01*
X133851374Y-82643530D01*
X133827153Y-82662382D01*
X133668215Y-82786087D01*
X133511020Y-82956848D01*
X133384076Y-83151150D01*
X133290844Y-83363696D01*
X133290842Y-83363700D01*
X133290843Y-83363700D01*
X133238601Y-83570000D01*
X133233865Y-83588700D01*
X133214699Y-83820000D01*
X133233865Y-84051299D01*
X133233865Y-84051301D01*
X133233866Y-84051305D01*
X133288361Y-84266497D01*
X133290844Y-84276303D01*
X133308589Y-84316757D01*
X133384076Y-84488849D01*
X133511021Y-84683153D01*
X133605803Y-84786114D01*
X133634575Y-84838865D01*
X133635168Y-84898951D01*
X133607441Y-84952261D01*
X133557906Y-84986276D01*
X133477671Y-85016202D01*
X133362454Y-85102454D01*
X133276204Y-85217668D01*
X133225909Y-85352516D01*
X133219500Y-85412130D01*
X133219500Y-87307869D01*
X133225909Y-87367483D01*
X133276204Y-87502331D01*
X133362454Y-87617546D01*
X133477669Y-87703796D01*
X133612517Y-87754091D01*
X133672127Y-87760500D01*
X135567872Y-87760499D01*
X135627483Y-87754091D01*
X135762331Y-87703796D01*
X135877546Y-87617546D01*
X135963796Y-87502331D01*
X136014091Y-87367483D01*
X136020500Y-87307873D01*
X136020499Y-85412128D01*
X136014091Y-85352517D01*
X135963796Y-85217669D01*
X135877546Y-85102454D01*
X135762331Y-85016204D01*
X135687852Y-84988425D01*
X135682093Y-84986277D01*
X135632558Y-84952261D01*
X135604831Y-84898951D01*
X135605424Y-84838864D01*
X135634196Y-84786114D01*
X135728979Y-84683153D01*
X135855924Y-84488849D01*
X135949157Y-84276300D01*
X136006134Y-84051305D01*
X136025300Y-83820000D01*
X136006134Y-83588695D01*
X135949157Y-83363700D01*
X135855924Y-83151151D01*
X135728979Y-82956847D01*
X135571784Y-82786087D01*
X135388626Y-82643530D01*
X135370284Y-82633604D01*
X135310482Y-82601240D01*
X135262977Y-82555659D01*
X135245500Y-82492186D01*
X135245500Y-81273952D01*
X135259015Y-81217657D01*
X135296615Y-81173634D01*
X135350102Y-81151479D01*
X135407818Y-81156021D01*
X135457180Y-81186270D01*
X137169753Y-82898844D01*
X138761038Y-84490129D01*
X138785277Y-84524426D01*
X138796678Y-84564848D01*
X138814326Y-84732757D01*
X138872820Y-84912784D01*
X138967466Y-85076716D01*
X139094129Y-85217389D01*
X139247269Y-85328651D01*
X139420197Y-85405644D01*
X139605352Y-85445000D01*
X139605354Y-85445000D01*
X139794646Y-85445000D01*
X139794648Y-85445000D01*
X139918084Y-85418762D01*
X139979803Y-85405644D01*
X140152730Y-85328651D01*
X140162566Y-85321505D01*
X140305870Y-85217389D01*
X140319383Y-85202382D01*
X140432533Y-85076716D01*
X140527179Y-84912784D01*
X140585674Y-84732756D01*
X140605460Y-84544500D01*
X140585674Y-84356244D01*
X140527179Y-84176216D01*
X140527179Y-84176215D01*
X140432533Y-84012283D01*
X140305870Y-83871610D01*
X140152730Y-83760348D01*
X139979802Y-83683355D01*
X139794648Y-83644000D01*
X139794646Y-83644000D01*
X139735453Y-83644000D01*
X139688000Y-83634561D01*
X139647772Y-83607681D01*
X136006319Y-79966228D01*
X135979439Y-79926000D01*
X135970000Y-79878547D01*
X135970000Y-79688549D01*
X135983515Y-79632254D01*
X136021115Y-79588231D01*
X136074602Y-79566076D01*
X136132318Y-79570618D01*
X136181681Y-79600868D01*
X136320859Y-79740046D01*
X136507264Y-79870567D01*
X136507265Y-79870567D01*
X136507266Y-79870568D01*
X136713504Y-79966739D01*
X136933308Y-80025635D01*
X137160000Y-80045468D01*
X137386692Y-80025635D01*
X137606496Y-79966739D01*
X137812734Y-79870568D01*
X137999139Y-79740047D01*
X138160047Y-79579139D01*
X138290568Y-79392734D01*
X138386739Y-79186496D01*
X138445635Y-78966692D01*
X138465468Y-78740000D01*
X138445635Y-78513308D01*
X138427319Y-78444951D01*
X138427319Y-78380763D01*
X138459411Y-78325178D01*
X139995185Y-76789404D01*
X140011281Y-76776510D01*
X140013269Y-76774391D01*
X140013273Y-76774390D01*
X140059344Y-76725327D01*
X140061962Y-76722627D01*
X140081516Y-76703075D01*
X140083977Y-76699902D01*
X140091552Y-76691031D01*
X140121458Y-76659186D01*
X140131113Y-76641622D01*
X140141790Y-76625368D01*
X140154069Y-76609540D01*
X140171414Y-76569456D01*
X140176556Y-76558960D01*
X140197593Y-76520696D01*
X140202575Y-76501288D01*
X140208877Y-76482884D01*
X140216833Y-76464500D01*
X140223665Y-76421356D01*
X140226029Y-76409942D01*
X140236896Y-76367623D01*
X140236896Y-76347588D01*
X140238423Y-76328189D01*
X140238464Y-76327925D01*
X140241556Y-76308408D01*
X140237446Y-76264929D01*
X140236896Y-76253260D01*
X140236896Y-66039999D01*
X141334540Y-66039999D01*
X141354326Y-66228257D01*
X141412820Y-66408284D01*
X141507466Y-66572216D01*
X141634129Y-66712889D01*
X141787269Y-66824151D01*
X141960197Y-66901144D01*
X142145352Y-66940500D01*
X142145354Y-66940500D01*
X142334646Y-66940500D01*
X142334648Y-66940500D01*
X142471547Y-66911401D01*
X142519803Y-66901144D01*
X142692730Y-66824151D01*
X142845871Y-66712888D01*
X142972533Y-66572216D01*
X143067179Y-66408284D01*
X143125674Y-66228256D01*
X143143322Y-66060341D01*
X143154720Y-66019927D01*
X143178957Y-65985632D01*
X145163789Y-64000800D01*
X145179885Y-63987906D01*
X145181873Y-63985787D01*
X145181877Y-63985786D01*
X145227948Y-63936723D01*
X145230566Y-63934023D01*
X145250120Y-63914471D01*
X145252581Y-63911298D01*
X145260156Y-63902427D01*
X145290062Y-63870582D01*
X145299717Y-63853018D01*
X145310394Y-63836764D01*
X145322673Y-63820936D01*
X145340018Y-63780852D01*
X145345160Y-63770356D01*
X145366197Y-63732092D01*
X145371179Y-63712684D01*
X145377481Y-63694280D01*
X145385437Y-63675896D01*
X145392269Y-63632752D01*
X145394633Y-63621338D01*
X145405500Y-63579019D01*
X145405500Y-63558984D01*
X145407027Y-63539585D01*
X145407068Y-63539321D01*
X145410160Y-63519804D01*
X145406050Y-63476325D01*
X145405500Y-63464656D01*
X145405500Y-54672791D01*
X145415512Y-54623978D01*
X145443930Y-54583048D01*
X145486166Y-54556609D01*
X145486169Y-54556608D01*
X145547331Y-54533796D01*
X145547333Y-54533794D01*
X145560932Y-54528722D01*
X145597601Y-54512857D01*
X145655071Y-54516322D01*
X145800000Y-54560286D01*
X145800000Y-54195672D01*
X145800711Y-54182416D01*
X145801122Y-54178588D01*
X145805500Y-54137873D01*
X145805500Y-53615380D01*
X146294500Y-53615380D01*
X146299403Y-53665161D01*
X146300000Y-53677315D01*
X146300000Y-54560285D01*
X146444149Y-54516558D01*
X146626016Y-54419348D01*
X146684470Y-54404706D01*
X146742923Y-54419348D01*
X146747504Y-54421797D01*
X146747506Y-54421798D01*
X146925659Y-54517023D01*
X147118967Y-54575662D01*
X147320000Y-54595462D01*
X147521033Y-54575662D01*
X147714341Y-54517023D01*
X147892494Y-54421798D01*
X148048647Y-54293647D01*
X148176798Y-54137494D01*
X148272023Y-53959341D01*
X148330662Y-53766033D01*
X148345500Y-53615380D01*
X148345500Y-53064620D01*
X148330662Y-52913967D01*
X148272023Y-52720659D01*
X148176798Y-52542506D01*
X148094422Y-52442130D01*
X148048647Y-52386352D01*
X147945259Y-52301505D01*
X147892494Y-52258202D01*
X147714341Y-52162977D01*
X147613720Y-52132454D01*
X147521031Y-52104337D01*
X147320000Y-52084538D01*
X147118968Y-52104337D01*
X146925656Y-52162978D01*
X146742923Y-52260651D01*
X146684470Y-52275293D01*
X146626017Y-52260651D01*
X146444152Y-52163442D01*
X146300000Y-52119715D01*
X146300000Y-53002685D01*
X146299403Y-53014839D01*
X146294500Y-53064620D01*
X146294500Y-53615380D01*
X145805500Y-53615380D01*
X145805499Y-52542128D01*
X145800709Y-52497577D01*
X145800000Y-52484325D01*
X145800000Y-52119713D01*
X145655069Y-52163677D01*
X145597603Y-52167143D01*
X145560933Y-52151278D01*
X145547332Y-52146205D01*
X145547331Y-52146204D01*
X145412483Y-52095909D01*
X145352873Y-52089500D01*
X145352869Y-52089500D01*
X144207130Y-52089500D01*
X144147515Y-52095909D01*
X144012669Y-52146204D01*
X143897454Y-52232454D01*
X143811204Y-52347668D01*
X143760909Y-52482516D01*
X143754500Y-52542130D01*
X143754500Y-54137869D01*
X143760909Y-54197484D01*
X143771274Y-54225273D01*
X143811204Y-54332331D01*
X143897454Y-54447546D01*
X144012669Y-54533796D01*
X144073835Y-54556609D01*
X144116069Y-54583047D01*
X144144488Y-54623977D01*
X144154500Y-54672790D01*
X144154500Y-63189547D01*
X144145061Y-63237000D01*
X144118181Y-63277228D01*
X142292228Y-65103181D01*
X142252000Y-65130061D01*
X142204547Y-65139500D01*
X142145352Y-65139500D01*
X141960197Y-65178855D01*
X141787269Y-65255848D01*
X141634129Y-65367110D01*
X141507466Y-65507783D01*
X141412820Y-65671715D01*
X141354326Y-65851742D01*
X141334540Y-66039999D01*
X140236896Y-66039999D01*
X140236896Y-60874136D01*
X140239159Y-60853632D01*
X140236957Y-60783540D01*
X140236896Y-60779646D01*
X140236896Y-60752053D01*
X140236896Y-60752046D01*
X140236391Y-60748049D01*
X140235476Y-60736419D01*
X140234105Y-60692769D01*
X140228516Y-60673536D01*
X140224570Y-60654478D01*
X140222060Y-60634604D01*
X140205984Y-60594002D01*
X140202200Y-60582948D01*
X140190015Y-60541009D01*
X140190014Y-60541008D01*
X140190014Y-60541006D01*
X140179813Y-60523757D01*
X140171256Y-60506291D01*
X140163882Y-60487664D01*
X140138209Y-60452328D01*
X140131798Y-60442568D01*
X140123541Y-60428606D01*
X140109566Y-60404975D01*
X140095402Y-60390811D01*
X140082765Y-60376016D01*
X140070991Y-60359810D01*
X140070990Y-60359809D01*
X140037331Y-60331964D01*
X140028701Y-60324110D01*
X134609180Y-54904589D01*
X134575800Y-54843747D01*
X134580339Y-54774498D01*
X134621374Y-54718532D01*
X134686054Y-54693380D01*
X134863216Y-54677879D01*
X134895408Y-54675063D01*
X135123663Y-54613903D01*
X135337830Y-54514035D01*
X135531401Y-54378495D01*
X135698495Y-54211401D01*
X135808426Y-54054402D01*
X135852743Y-54015538D01*
X135910000Y-54001527D01*
X135967257Y-54015538D01*
X136011573Y-54054402D01*
X136121505Y-54211401D01*
X136288599Y-54378495D01*
X136482170Y-54514035D01*
X136696337Y-54613903D01*
X136924592Y-54675063D01*
X137160000Y-54695659D01*
X137395408Y-54675063D01*
X137623663Y-54613903D01*
X137837830Y-54514035D01*
X138031401Y-54378495D01*
X138198495Y-54211401D01*
X138334035Y-54017830D01*
X138433903Y-53803663D01*
X138495063Y-53575408D01*
X138515659Y-53340000D01*
X138495063Y-53104592D01*
X138433903Y-52876337D01*
X138334035Y-52662171D01*
X138198495Y-52468599D01*
X138031401Y-52301505D01*
X137837830Y-52165965D01*
X137623663Y-52066097D01*
X137562502Y-52049709D01*
X137395407Y-52004936D01*
X137160000Y-51984340D01*
X136924591Y-52004936D01*
X136824125Y-52031855D01*
X136759939Y-52031855D01*
X136704352Y-51999761D01*
X136485802Y-51781211D01*
X136472906Y-51765113D01*
X136421775Y-51717098D01*
X136418978Y-51714387D01*
X136399470Y-51694879D01*
X136396290Y-51692412D01*
X136387424Y-51684839D01*
X136355582Y-51654938D01*
X136338024Y-51645285D01*
X136321764Y-51634604D01*
X136305936Y-51622327D01*
X136265851Y-51604980D01*
X136255361Y-51599841D01*
X136217091Y-51578802D01*
X136197691Y-51573821D01*
X136179284Y-51567519D01*
X136160897Y-51559562D01*
X136117758Y-51552729D01*
X136106324Y-51550361D01*
X136064019Y-51539500D01*
X136043984Y-51539500D01*
X136024586Y-51537973D01*
X136017162Y-51536797D01*
X136004805Y-51534840D01*
X136004804Y-51534840D01*
X135979468Y-51537235D01*
X135961325Y-51538950D01*
X135949656Y-51539500D01*
X105397744Y-51539500D01*
X105377237Y-51537235D01*
X105307127Y-51539439D01*
X105303232Y-51539500D01*
X105275650Y-51539500D01*
X105271665Y-51540003D01*
X105260033Y-51540918D01*
X105216369Y-51542290D01*
X105197129Y-51547880D01*
X105178081Y-51551825D01*
X105158209Y-51554335D01*
X105117599Y-51570413D01*
X105106554Y-51574194D01*
X105064610Y-51586381D01*
X105047365Y-51596579D01*
X105029904Y-51605133D01*
X105011267Y-51612512D01*
X104975931Y-51638185D01*
X104966174Y-51644595D01*
X104928580Y-51666829D01*
X104914413Y-51680996D01*
X104899624Y-51693626D01*
X104883413Y-51705404D01*
X104855572Y-51739058D01*
X104847711Y-51747697D01*
X104642227Y-51953181D01*
X104601999Y-51980061D01*
X104554546Y-51989500D01*
X103242130Y-51989500D01*
X103182515Y-51995909D01*
X103047669Y-52046204D01*
X102932454Y-52132454D01*
X102846204Y-52247668D01*
X102795909Y-52382516D01*
X102789500Y-52442130D01*
X102789500Y-54237869D01*
X102795909Y-54297484D01*
X102808906Y-54332330D01*
X102846204Y-54432331D01*
X102932454Y-54547546D01*
X103047669Y-54633796D01*
X103182517Y-54684091D01*
X103242127Y-54690500D01*
X105037872Y-54690499D01*
X105097483Y-54684091D01*
X105232331Y-54633796D01*
X105347546Y-54547546D01*
X105433796Y-54432331D01*
X105483003Y-54300398D01*
X105517981Y-54250021D01*
X105572826Y-54222568D01*
X105634119Y-54224757D01*
X105686865Y-54256053D01*
X105808918Y-54378106D01*
X106002423Y-54513600D01*
X106216507Y-54613430D01*
X106429999Y-54670635D01*
X106430000Y-54670636D01*
X106430000Y-53590000D01*
X106930000Y-53590000D01*
X106930000Y-54670635D01*
X107143492Y-54613430D01*
X107357576Y-54513600D01*
X107551081Y-54378106D01*
X107718106Y-54211081D01*
X107853600Y-54017576D01*
X107953430Y-53803492D01*
X108010636Y-53590000D01*
X106930000Y-53590000D01*
X106430000Y-53590000D01*
X106430000Y-53214000D01*
X106446613Y-53152000D01*
X106492000Y-53106613D01*
X106554000Y-53090000D01*
X108010636Y-53090000D01*
X108010635Y-53089999D01*
X107972210Y-52946594D01*
X107970368Y-52890309D01*
X107993609Y-52839014D01*
X108037141Y-52803288D01*
X108091985Y-52790500D01*
X110285500Y-52790500D01*
X110347500Y-52807113D01*
X110392887Y-52852500D01*
X110409500Y-52914500D01*
X110409500Y-54237869D01*
X110415909Y-54297484D01*
X110428906Y-54332330D01*
X110466204Y-54432331D01*
X110552454Y-54547546D01*
X110667669Y-54633796D01*
X110802517Y-54684091D01*
X110862127Y-54690500D01*
X112657872Y-54690499D01*
X112717483Y-54684091D01*
X112852331Y-54633796D01*
X112967546Y-54547546D01*
X113053796Y-54432331D01*
X113102810Y-54300916D01*
X113137789Y-54250537D01*
X113192634Y-54223084D01*
X113253927Y-54225273D01*
X113306673Y-54256568D01*
X113428599Y-54378495D01*
X113622170Y-54514035D01*
X113836337Y-54613903D01*
X114064592Y-54675063D01*
X114300000Y-54695659D01*
X114535408Y-54675063D01*
X114763663Y-54613903D01*
X114977830Y-54514035D01*
X115171401Y-54378495D01*
X115338495Y-54211401D01*
X115468426Y-54025839D01*
X115512743Y-53986975D01*
X115570000Y-53972964D01*
X115627257Y-53986975D01*
X115671573Y-54025839D01*
X115801505Y-54211401D01*
X115968599Y-54378495D01*
X116162170Y-54514035D01*
X116376337Y-54613903D01*
X116604592Y-54675063D01*
X116840000Y-54695659D01*
X117075408Y-54675063D01*
X117303663Y-54613903D01*
X117517830Y-54514035D01*
X117711401Y-54378495D01*
X117878495Y-54211401D01*
X118008426Y-54025839D01*
X118052743Y-53986975D01*
X118110000Y-53972964D01*
X118167257Y-53986975D01*
X118211573Y-54025839D01*
X118341505Y-54211401D01*
X118508599Y-54378495D01*
X118702170Y-54514035D01*
X118916337Y-54613903D01*
X119144592Y-54675063D01*
X119380000Y-54695659D01*
X119615408Y-54675063D01*
X119843663Y-54613903D01*
X120057830Y-54514035D01*
X120251401Y-54378495D01*
X120418495Y-54211401D01*
X120548426Y-54025839D01*
X120592743Y-53986975D01*
X120650000Y-53972964D01*
X120707257Y-53986975D01*
X120751573Y-54025839D01*
X120881505Y-54211401D01*
X121048599Y-54378495D01*
X121242170Y-54514035D01*
X121456337Y-54613903D01*
X121684592Y-54675063D01*
X121920000Y-54695659D01*
X122155408Y-54675063D01*
X122383663Y-54613903D01*
X122597830Y-54514035D01*
X122791401Y-54378495D01*
X122958495Y-54211401D01*
X123088732Y-54025402D01*
X123133048Y-53986539D01*
X123190305Y-53972528D01*
X123247562Y-53986539D01*
X123291880Y-54025404D01*
X123421893Y-54211081D01*
X123588918Y-54378106D01*
X123782423Y-54513600D01*
X123996507Y-54613430D01*
X124209999Y-54670635D01*
X124210000Y-54670636D01*
X124210000Y-53590000D01*
X124710000Y-53590000D01*
X124710000Y-54670635D01*
X124923492Y-54613430D01*
X125137576Y-54513600D01*
X125331081Y-54378106D01*
X125498106Y-54211081D01*
X125633600Y-54017576D01*
X125733430Y-53803492D01*
X125790636Y-53590000D01*
X124710000Y-53590000D01*
X124210000Y-53590000D01*
X124210000Y-53214000D01*
X124226613Y-53152000D01*
X124272000Y-53106613D01*
X124334000Y-53090000D01*
X125790636Y-53090000D01*
X125790635Y-53089999D01*
X125752210Y-52946594D01*
X125750368Y-52890309D01*
X125773609Y-52839014D01*
X125817141Y-52803288D01*
X125871985Y-52790500D01*
X130747497Y-52790500D01*
X130802341Y-52803288D01*
X130845873Y-52839014D01*
X130869114Y-52890309D01*
X130867272Y-52946593D01*
X130824936Y-53104592D01*
X130804340Y-53340000D01*
X130824936Y-53575407D01*
X130869709Y-53742501D01*
X130886097Y-53803663D01*
X130985965Y-54017830D01*
X131121505Y-54211401D01*
X131288599Y-54378495D01*
X131482170Y-54514035D01*
X131696337Y-54613903D01*
X131924592Y-54675063D01*
X132160000Y-54695659D01*
X132395408Y-54675063D01*
X132495874Y-54648143D01*
X132560059Y-54648143D01*
X132615647Y-54680237D01*
X138949577Y-61014168D01*
X138976457Y-61054396D01*
X138985896Y-61101849D01*
X138985896Y-75978151D01*
X138976457Y-76025604D01*
X138949577Y-76065832D01*
X137574821Y-77440586D01*
X137519234Y-77472680D01*
X137455047Y-77472680D01*
X137386690Y-77454364D01*
X137159999Y-77434531D01*
X136933310Y-77454364D01*
X136713502Y-77513261D01*
X136507264Y-77609432D01*
X136320859Y-77739953D01*
X136181681Y-77879132D01*
X136132318Y-77909382D01*
X136074602Y-77913924D01*
X136021115Y-77891769D01*
X135983515Y-77847746D01*
X135970000Y-77791451D01*
X135970000Y-74819026D01*
X136434526Y-74819026D01*
X136507515Y-74870133D01*
X136713673Y-74966266D01*
X136933397Y-75025141D01*
X137160000Y-75044966D01*
X137386602Y-75025141D01*
X137606326Y-74966266D01*
X137812480Y-74870134D01*
X137885472Y-74819025D01*
X137160001Y-74093553D01*
X137160000Y-74093553D01*
X136434526Y-74819025D01*
X136434526Y-74819026D01*
X135970000Y-74819026D01*
X135970000Y-74591085D01*
X135988462Y-74525987D01*
X136038350Y-74480274D01*
X136072755Y-74473690D01*
X136806446Y-73740001D01*
X137513553Y-73740001D01*
X138239025Y-74465472D01*
X138290134Y-74392480D01*
X138386266Y-74186326D01*
X138445141Y-73966602D01*
X138464966Y-73739999D01*
X138445141Y-73513397D01*
X138386266Y-73293673D01*
X138290133Y-73087515D01*
X138239025Y-73014526D01*
X137513553Y-73740000D01*
X137513553Y-73740001D01*
X136806446Y-73740001D01*
X136806446Y-73740000D01*
X136080973Y-73014526D01*
X136044270Y-73017737D01*
X136000325Y-73013699D01*
X135960578Y-72994527D01*
X135797230Y-72875848D01*
X135624302Y-72798855D01*
X135439148Y-72759500D01*
X135439146Y-72759500D01*
X135369500Y-72759500D01*
X135307500Y-72742887D01*
X135262113Y-72697500D01*
X135252326Y-72660973D01*
X136434526Y-72660973D01*
X137160000Y-73386446D01*
X137160001Y-73386446D01*
X137885472Y-72660974D01*
X137885471Y-72660972D01*
X137812484Y-72609866D01*
X137606326Y-72513733D01*
X137386602Y-72454858D01*
X137159999Y-72435033D01*
X136933397Y-72454858D01*
X136713672Y-72513733D01*
X136507516Y-72609865D01*
X136434527Y-72660973D01*
X136434526Y-72660973D01*
X135252326Y-72660973D01*
X135245500Y-72635500D01*
X135245500Y-66122744D01*
X135247764Y-66102237D01*
X135245561Y-66032127D01*
X135245500Y-66028232D01*
X135245500Y-66000653D01*
X135244997Y-65996672D01*
X135244080Y-65985019D01*
X135242709Y-65941373D01*
X135237120Y-65922140D01*
X135233174Y-65903082D01*
X135230664Y-65883206D01*
X135214588Y-65842604D01*
X135210804Y-65831553D01*
X135204164Y-65808700D01*
X135198618Y-65789610D01*
X135188414Y-65772355D01*
X135179861Y-65754895D01*
X135172486Y-65736269D01*
X135172486Y-65736268D01*
X135146808Y-65700925D01*
X135140401Y-65691171D01*
X135118170Y-65653580D01*
X135104006Y-65639416D01*
X135091367Y-65624617D01*
X135079595Y-65608413D01*
X135045941Y-65580573D01*
X135037299Y-65572709D01*
X130839413Y-61374822D01*
X130807319Y-61319234D01*
X130807319Y-61255047D01*
X130825635Y-61186692D01*
X130845468Y-60960000D01*
X130845467Y-60959999D01*
X130841610Y-60915897D01*
X130850995Y-60856639D01*
X130887102Y-60808724D01*
X130941478Y-60783368D01*
X131001392Y-60786508D01*
X131052819Y-60817409D01*
X135778650Y-65543241D01*
X135810520Y-65598004D01*
X135811175Y-65661361D01*
X135773865Y-65808698D01*
X135754699Y-66040000D01*
X135773865Y-66271299D01*
X135773865Y-66271301D01*
X135773866Y-66271305D01*
X135828361Y-66486497D01*
X135830844Y-66496303D01*
X135864143Y-66572216D01*
X135924076Y-66708849D01*
X136051021Y-66903153D01*
X136145803Y-67006114D01*
X136174575Y-67058865D01*
X136175168Y-67118951D01*
X136147441Y-67172261D01*
X136097906Y-67206276D01*
X136017671Y-67236202D01*
X135902454Y-67322454D01*
X135816204Y-67437668D01*
X135765909Y-67572516D01*
X135759500Y-67632130D01*
X135759500Y-69527869D01*
X135765909Y-69587483D01*
X135816204Y-69722331D01*
X135902454Y-69837546D01*
X136017669Y-69923796D01*
X136152517Y-69974091D01*
X136212127Y-69980500D01*
X138107872Y-69980499D01*
X138167483Y-69974091D01*
X138302331Y-69923796D01*
X138417546Y-69837546D01*
X138503796Y-69722331D01*
X138554091Y-69587483D01*
X138560500Y-69527873D01*
X138560499Y-67632128D01*
X138554091Y-67572517D01*
X138503796Y-67437669D01*
X138417546Y-67322454D01*
X138302331Y-67236204D01*
X138227852Y-67208425D01*
X138222093Y-67206277D01*
X138172558Y-67172261D01*
X138144831Y-67118951D01*
X138145424Y-67058864D01*
X138174196Y-67006114D01*
X138268979Y-66903153D01*
X138395924Y-66708849D01*
X138489157Y-66496300D01*
X138546134Y-66271305D01*
X138565300Y-66040000D01*
X138546134Y-65808695D01*
X138489157Y-65583700D01*
X138395924Y-65371151D01*
X138268979Y-65176847D01*
X138111784Y-65006087D01*
X137928626Y-64863530D01*
X137724503Y-64753064D01*
X137724499Y-64753062D01*
X137724498Y-64753062D01*
X137504984Y-64677702D01*
X137333282Y-64649050D01*
X137276049Y-64639500D01*
X137043951Y-64639500D01*
X136967640Y-64652234D01*
X136815017Y-64677702D01*
X136789421Y-64686489D01*
X136721210Y-64690016D01*
X136661479Y-64656888D01*
X131455802Y-59451211D01*
X131442906Y-59435113D01*
X131391775Y-59387098D01*
X131388978Y-59384387D01*
X131369470Y-59364879D01*
X131366290Y-59362412D01*
X131357424Y-59354839D01*
X131325582Y-59324938D01*
X131308024Y-59315285D01*
X131291764Y-59304604D01*
X131275936Y-59292327D01*
X131235851Y-59274980D01*
X131225361Y-59269841D01*
X131187091Y-59248802D01*
X131167691Y-59243821D01*
X131149284Y-59237519D01*
X131130897Y-59229562D01*
X131087758Y-59222729D01*
X131076324Y-59220361D01*
X131034019Y-59209500D01*
X131013984Y-59209500D01*
X130994586Y-59207973D01*
X130987162Y-59206797D01*
X130974805Y-59204840D01*
X130974804Y-59204840D01*
X130941751Y-59207964D01*
X130931325Y-59208950D01*
X130919656Y-59209500D01*
X118100883Y-59209500D01*
X118041240Y-59194214D01*
X117996302Y-59152125D01*
X117977148Y-59093610D01*
X117988501Y-59033095D01*
X118066266Y-58866326D01*
X118125141Y-58646602D01*
X118144966Y-58420000D01*
X118125141Y-58193397D01*
X118066266Y-57973673D01*
X117970133Y-57767515D01*
X117919025Y-57694526D01*
X116927680Y-58685871D01*
X116872093Y-58717965D01*
X116807905Y-58717965D01*
X116752318Y-58685871D01*
X115760973Y-57694527D01*
X115709865Y-57767516D01*
X115613733Y-57973672D01*
X115554858Y-58193397D01*
X115535033Y-58420000D01*
X115554858Y-58646602D01*
X115613733Y-58866326D01*
X115691499Y-59033095D01*
X115702852Y-59093610D01*
X115683698Y-59152125D01*
X115638760Y-59194214D01*
X115579117Y-59209500D01*
X113565453Y-59209500D01*
X113518000Y-59200061D01*
X113477772Y-59173181D01*
X113139413Y-58834822D01*
X113107319Y-58779234D01*
X113107319Y-58715047D01*
X113125635Y-58646692D01*
X113145468Y-58420000D01*
X113125635Y-58193308D01*
X113066739Y-57973504D01*
X112970568Y-57767266D01*
X112919635Y-57694526D01*
X112840046Y-57580859D01*
X112679140Y-57419953D01*
X112566344Y-57340973D01*
X116114526Y-57340973D01*
X116840000Y-58066446D01*
X116840001Y-58066446D01*
X117565472Y-57340974D01*
X117565471Y-57340972D01*
X117492484Y-57289866D01*
X117286326Y-57193733D01*
X117066602Y-57134858D01*
X116840000Y-57115033D01*
X116613397Y-57134858D01*
X116393672Y-57193733D01*
X116187516Y-57289865D01*
X116114527Y-57340973D01*
X116114526Y-57340973D01*
X112566344Y-57340973D01*
X112492735Y-57289432D01*
X112286497Y-57193261D01*
X112066689Y-57134364D01*
X111840000Y-57114531D01*
X111613310Y-57134364D01*
X111393502Y-57193261D01*
X111187264Y-57289432D01*
X111000859Y-57419953D01*
X110839953Y-57580859D01*
X110709432Y-57767265D01*
X110642106Y-57911645D01*
X110596349Y-57963821D01*
X110529724Y-57983240D01*
X110463099Y-57963821D01*
X110417342Y-57911645D01*
X110350133Y-57767515D01*
X110299025Y-57694526D01*
X109307680Y-58685871D01*
X109252093Y-58717965D01*
X109187905Y-58717965D01*
X109132318Y-58685871D01*
X108140973Y-57694527D01*
X108089865Y-57767516D01*
X107993733Y-57973672D01*
X107934858Y-58193397D01*
X107915033Y-58420000D01*
X107934858Y-58646602D01*
X107993733Y-58866326D01*
X108071499Y-59033095D01*
X108082852Y-59093610D01*
X108063698Y-59152125D01*
X108018760Y-59194214D01*
X107959117Y-59209500D01*
X105945453Y-59209500D01*
X105898000Y-59200061D01*
X105857772Y-59173181D01*
X105519413Y-58834822D01*
X105487319Y-58779234D01*
X105487319Y-58715047D01*
X105505635Y-58646692D01*
X105525468Y-58420000D01*
X105505635Y-58193308D01*
X105446739Y-57973504D01*
X105350568Y-57767266D01*
X105299635Y-57694526D01*
X105220046Y-57580859D01*
X105059140Y-57419953D01*
X104946344Y-57340973D01*
X108494526Y-57340973D01*
X109220000Y-58066446D01*
X109220001Y-58066446D01*
X109945472Y-57340974D01*
X109945471Y-57340972D01*
X109872484Y-57289866D01*
X109666326Y-57193733D01*
X109446602Y-57134858D01*
X109220000Y-57115033D01*
X108993397Y-57134858D01*
X108773672Y-57193733D01*
X108567516Y-57289865D01*
X108494527Y-57340973D01*
X108494526Y-57340973D01*
X104946344Y-57340973D01*
X104872735Y-57289432D01*
X104666497Y-57193261D01*
X104446689Y-57134364D01*
X104220000Y-57114531D01*
X103993310Y-57134364D01*
X103773502Y-57193261D01*
X103567264Y-57289432D01*
X103380859Y-57419953D01*
X103219953Y-57580859D01*
X103089432Y-57767264D01*
X102993261Y-57973502D01*
X102934364Y-58193310D01*
X102914531Y-58419999D01*
X102934364Y-58646689D01*
X102993261Y-58866497D01*
X103089432Y-59072735D01*
X103219953Y-59259140D01*
X103380859Y-59420046D01*
X103567264Y-59550567D01*
X103567265Y-59550567D01*
X103567266Y-59550568D01*
X103773504Y-59646739D01*
X103993308Y-59705635D01*
X104220000Y-59725468D01*
X104446692Y-59705635D01*
X104515048Y-59687319D01*
X104579234Y-59687319D01*
X104634822Y-59719413D01*
X105134196Y-60218787D01*
X105147096Y-60234888D01*
X105198223Y-60282900D01*
X105201020Y-60285611D01*
X105220529Y-60305120D01*
X105223711Y-60307588D01*
X105232571Y-60315155D01*
X105246512Y-60328247D01*
X105264418Y-60345062D01*
X105281970Y-60354711D01*
X105298238Y-60365397D01*
X105314064Y-60377673D01*
X105354146Y-60395017D01*
X105364633Y-60400155D01*
X105402907Y-60421197D01*
X105411410Y-60423379D01*
X105422308Y-60426178D01*
X105440713Y-60432478D01*
X105459104Y-60440437D01*
X105502250Y-60447270D01*
X105513668Y-60449635D01*
X105555981Y-60460500D01*
X105576016Y-60460500D01*
X105595415Y-60462027D01*
X105615196Y-60465160D01*
X105658674Y-60461050D01*
X105670344Y-60460500D01*
X113175981Y-60460500D01*
X113196016Y-60460500D01*
X113215415Y-60462027D01*
X113235196Y-60465160D01*
X113278674Y-60461050D01*
X113290344Y-60460500D01*
X113294350Y-60460500D01*
X120495500Y-60460500D01*
X120557500Y-60477113D01*
X120602887Y-60522500D01*
X120619500Y-60584500D01*
X120619500Y-61807869D01*
X120625909Y-61867483D01*
X120676204Y-62002331D01*
X120762454Y-62117546D01*
X120877669Y-62203796D01*
X121012517Y-62254091D01*
X121047594Y-62257862D01*
X121103513Y-62278239D01*
X121143497Y-62322327D01*
X121158332Y-62379968D01*
X121144600Y-62437881D01*
X121105464Y-62482724D01*
X121080860Y-62499952D01*
X120919953Y-62660859D01*
X120789432Y-62847264D01*
X120693261Y-63053502D01*
X120634364Y-63273310D01*
X120614531Y-63499999D01*
X120634364Y-63726689D01*
X120693261Y-63946497D01*
X120789432Y-64152735D01*
X120919953Y-64339140D01*
X121080859Y-64500046D01*
X121267263Y-64630566D01*
X121267266Y-64630568D01*
X121324683Y-64657342D01*
X121325275Y-64657618D01*
X121377450Y-64703375D01*
X121396869Y-64770000D01*
X121377450Y-64836625D01*
X121325275Y-64882382D01*
X121267263Y-64909433D01*
X121080859Y-65039953D01*
X120919953Y-65200859D01*
X120789432Y-65387264D01*
X120693261Y-65593502D01*
X120634364Y-65813310D01*
X120614531Y-66039999D01*
X120618390Y-66084101D01*
X120609005Y-66143360D01*
X120572898Y-66191275D01*
X120518522Y-66216631D01*
X120458608Y-66213491D01*
X120407181Y-66182590D01*
X118139413Y-63914822D01*
X118107319Y-63859234D01*
X118107319Y-63795047D01*
X118125635Y-63726692D01*
X118145468Y-63500000D01*
X118125635Y-63273308D01*
X118066739Y-63053504D01*
X117970568Y-62847266D01*
X117840270Y-62661180D01*
X117840046Y-62660859D01*
X117679140Y-62499953D01*
X117492735Y-62369432D01*
X117286497Y-62273261D01*
X117066689Y-62214364D01*
X116840000Y-62194531D01*
X116613310Y-62214364D01*
X116393502Y-62273261D01*
X116187264Y-62369432D01*
X116000859Y-62499953D01*
X115839953Y-62660859D01*
X115709432Y-62847264D01*
X115613261Y-63053502D01*
X115554364Y-63273310D01*
X115534531Y-63499999D01*
X115554364Y-63726689D01*
X115613261Y-63946497D01*
X115709432Y-64152735D01*
X115839953Y-64339140D01*
X116000859Y-64500046D01*
X116187264Y-64630567D01*
X116187265Y-64630567D01*
X116187266Y-64630568D01*
X116393504Y-64726739D01*
X116613308Y-64785635D01*
X116840000Y-64805468D01*
X117066692Y-64785635D01*
X117135049Y-64767319D01*
X117199235Y-64767319D01*
X117254823Y-64799413D01*
X120133181Y-67677771D01*
X120160061Y-67717999D01*
X120169500Y-67765452D01*
X120169500Y-71503247D01*
X120167235Y-71523753D01*
X120169439Y-71593864D01*
X120169500Y-71597759D01*
X120169500Y-71625340D01*
X120170003Y-71629325D01*
X120170918Y-71640958D01*
X120172290Y-71684617D01*
X120177879Y-71703851D01*
X120181825Y-71722907D01*
X120184335Y-71742783D01*
X120200414Y-71783395D01*
X120204197Y-71794442D01*
X120216382Y-71836382D01*
X120226580Y-71853626D01*
X120235136Y-71871091D01*
X120242514Y-71889723D01*
X120242515Y-71889724D01*
X120268180Y-71925050D01*
X120274593Y-71934813D01*
X120296826Y-71972407D01*
X120296829Y-71972410D01*
X120296830Y-71972411D01*
X120310995Y-71986576D01*
X120323627Y-72001366D01*
X120335406Y-72017578D01*
X120369058Y-72045417D01*
X120377699Y-72053280D01*
X120944934Y-72620515D01*
X120977027Y-72676101D01*
X120977028Y-72740287D01*
X120944937Y-72795875D01*
X120919951Y-72820861D01*
X120789432Y-73007264D01*
X120693261Y-73213502D01*
X120634364Y-73433310D01*
X120614531Y-73659999D01*
X120618390Y-73704101D01*
X120609005Y-73763360D01*
X120572898Y-73811275D01*
X120518522Y-73836631D01*
X120458608Y-73833491D01*
X120407181Y-73802590D01*
X117501819Y-70897228D01*
X117474939Y-70857000D01*
X117465500Y-70809547D01*
X117465500Y-69794188D01*
X117479511Y-69736931D01*
X117518377Y-69692613D01*
X117624235Y-69618491D01*
X117679139Y-69580047D01*
X117840047Y-69419139D01*
X117970568Y-69232734D01*
X118066739Y-69026496D01*
X118125635Y-68806692D01*
X118145468Y-68580000D01*
X118125635Y-68353308D01*
X118066739Y-68133504D01*
X117970568Y-67927266D01*
X117956456Y-67907112D01*
X117840046Y-67740859D01*
X117679140Y-67579953D01*
X117492735Y-67449432D01*
X117286497Y-67353261D01*
X117066689Y-67294364D01*
X116840000Y-67274531D01*
X116613310Y-67294364D01*
X116393502Y-67353261D01*
X116187264Y-67449432D01*
X116000859Y-67579953D01*
X115839953Y-67740859D01*
X115709432Y-67927264D01*
X115613261Y-68133502D01*
X115554364Y-68353310D01*
X115534531Y-68580000D01*
X115554364Y-68806689D01*
X115613261Y-69026497D01*
X115709432Y-69232735D01*
X115839953Y-69419140D01*
X116000859Y-69580046D01*
X116161623Y-69692613D01*
X116200489Y-69736931D01*
X116214500Y-69794188D01*
X116214500Y-69946944D01*
X116200985Y-70003239D01*
X116163385Y-70047262D01*
X116109898Y-70069417D01*
X116052182Y-70064875D01*
X116002819Y-70034625D01*
X113234933Y-67266739D01*
X110329567Y-64361372D01*
X110299542Y-64312694D01*
X110294557Y-64255719D01*
X110315674Y-64202567D01*
X110350567Y-64152735D01*
X110350568Y-64152734D01*
X110446739Y-63946496D01*
X110505635Y-63726692D01*
X110525468Y-63500000D01*
X110505635Y-63273308D01*
X110446739Y-63053504D01*
X110350568Y-62847266D01*
X110220270Y-62661180D01*
X110220046Y-62660859D01*
X110059140Y-62499953D01*
X109872735Y-62369432D01*
X109666497Y-62273261D01*
X109446689Y-62214364D01*
X109220000Y-62194531D01*
X108993310Y-62214364D01*
X108773502Y-62273261D01*
X108567264Y-62369432D01*
X108380859Y-62499953D01*
X108219953Y-62660859D01*
X108089432Y-62847264D01*
X107993261Y-63053502D01*
X107934364Y-63273310D01*
X107914531Y-63499999D01*
X107934364Y-63726690D01*
X107952680Y-63795047D01*
X107952680Y-63859234D01*
X107920586Y-63914821D01*
X103756208Y-68079199D01*
X103740110Y-68092096D01*
X103692096Y-68143225D01*
X103689391Y-68146017D01*
X103669874Y-68165534D01*
X103667415Y-68168705D01*
X103659842Y-68177572D01*
X103629935Y-68209420D01*
X103620285Y-68226974D01*
X103609609Y-68243228D01*
X103597326Y-68259063D01*
X103579975Y-68299158D01*
X103574836Y-68309647D01*
X103555938Y-68344021D01*
X103516544Y-68387132D01*
X103461786Y-68407430D01*
X103403810Y-68400414D01*
X103355475Y-68367639D01*
X103327502Y-68316375D01*
X103273903Y-68116337D01*
X103174035Y-67902171D01*
X103038495Y-67708599D01*
X102871401Y-67541505D01*
X102685839Y-67411573D01*
X102646975Y-67367257D01*
X102632964Y-67310000D01*
X102646975Y-67252743D01*
X102685839Y-67208426D01*
X102871401Y-67078495D01*
X103038495Y-66911401D01*
X103174035Y-66717830D01*
X103273903Y-66503663D01*
X103335063Y-66275408D01*
X103355659Y-66040000D01*
X103351360Y-65990869D01*
X103335063Y-65804592D01*
X103316756Y-65736268D01*
X103273903Y-65576337D01*
X103174035Y-65362171D01*
X103038495Y-65168599D01*
X102916569Y-65046672D01*
X102885273Y-64993927D01*
X102883084Y-64932634D01*
X102910537Y-64877789D01*
X102960916Y-64842810D01*
X103092331Y-64793796D01*
X103207546Y-64707546D01*
X103293796Y-64592331D01*
X103344091Y-64457483D01*
X103350500Y-64397873D01*
X103350499Y-62602128D01*
X103344091Y-62542517D01*
X103293796Y-62407669D01*
X103207546Y-62292454D01*
X103092331Y-62206204D01*
X102957483Y-62155909D01*
X102897873Y-62149500D01*
X102897869Y-62149500D01*
X101102130Y-62149500D01*
X101042515Y-62155909D01*
X100907669Y-62206204D01*
X100792454Y-62292454D01*
X100706204Y-62407668D01*
X100655909Y-62542516D01*
X100649500Y-62602130D01*
X100649500Y-64397869D01*
X100655909Y-64457483D01*
X100706204Y-64592331D01*
X100792454Y-64707546D01*
X100907669Y-64793796D01*
X101011317Y-64832454D01*
X101039082Y-64842810D01*
X101089462Y-64877789D01*
X101116915Y-64932634D01*
X101114726Y-64993926D01*
X101083431Y-65046673D01*
X100961503Y-65168601D01*
X100825965Y-65362170D01*
X100726097Y-65576336D01*
X100664936Y-65804592D01*
X100644340Y-66039999D01*
X100664936Y-66275407D01*
X100709709Y-66442502D01*
X100726097Y-66503663D01*
X100825965Y-66717830D01*
X100961505Y-66911401D01*
X101128599Y-67078495D01*
X101314160Y-67208426D01*
X101353024Y-67252743D01*
X101367035Y-67310000D01*
X101353024Y-67367257D01*
X101314159Y-67411575D01*
X101298725Y-67422382D01*
X101226958Y-67472634D01*
X101128595Y-67541508D01*
X100961505Y-67708598D01*
X100825965Y-67902170D01*
X100726097Y-68116336D01*
X100664936Y-68344592D01*
X100644340Y-68579999D01*
X100664936Y-68815407D01*
X100704537Y-68963198D01*
X100726097Y-69043663D01*
X100825965Y-69257830D01*
X100961505Y-69451401D01*
X101128599Y-69618495D01*
X101314160Y-69748426D01*
X101353024Y-69792743D01*
X101367035Y-69850000D01*
X101353024Y-69907257D01*
X101314159Y-69951575D01*
X101128595Y-70081508D01*
X100961505Y-70248598D01*
X100825965Y-70442170D01*
X100726097Y-70656336D01*
X100664936Y-70884592D01*
X100644340Y-71119999D01*
X100664936Y-71355407D01*
X100704537Y-71503198D01*
X100726097Y-71583663D01*
X100825965Y-71797830D01*
X100961505Y-71991401D01*
X101128599Y-72158495D01*
X101314160Y-72288426D01*
X101353024Y-72332743D01*
X101367035Y-72390000D01*
X101353024Y-72447257D01*
X101314158Y-72491575D01*
X101145222Y-72609866D01*
X101128595Y-72621508D01*
X100961505Y-72788598D01*
X100825965Y-72982170D01*
X100726097Y-73196336D01*
X100664936Y-73424592D01*
X100644340Y-73660000D01*
X100664936Y-73895407D01*
X100702191Y-74034444D01*
X100726097Y-74123663D01*
X100825965Y-74337830D01*
X100961505Y-74531401D01*
X101128599Y-74698495D01*
X101314160Y-74828426D01*
X101353024Y-74872743D01*
X101367035Y-74930000D01*
X101353024Y-74987257D01*
X101314159Y-75031575D01*
X101128595Y-75161508D01*
X100961505Y-75328598D01*
X100825965Y-75522170D01*
X100726097Y-75736336D01*
X100664936Y-75964592D01*
X100644340Y-76199999D01*
X100664936Y-76435407D01*
X100703633Y-76579826D01*
X100726097Y-76663663D01*
X100825965Y-76877830D01*
X100961505Y-77071401D01*
X101128599Y-77238495D01*
X101314160Y-77368426D01*
X101353024Y-77412743D01*
X101367035Y-77470000D01*
X101353024Y-77527257D01*
X101314159Y-77571575D01*
X101128595Y-77701508D01*
X100961505Y-77868598D01*
X100825965Y-78062170D01*
X100726097Y-78276336D01*
X100664936Y-78504592D01*
X100644340Y-78740000D01*
X100664936Y-78975407D01*
X100699238Y-79103424D01*
X100726097Y-79203663D01*
X100825965Y-79417830D01*
X100961505Y-79611401D01*
X101128599Y-79778495D01*
X101314160Y-79908426D01*
X101353024Y-79952743D01*
X101367035Y-80010000D01*
X101353024Y-80067257D01*
X101314159Y-80111575D01*
X101128595Y-80241508D01*
X100961505Y-80408598D01*
X100825965Y-80602170D01*
X100726097Y-80816336D01*
X100664936Y-81044592D01*
X100644340Y-81279999D01*
X100664936Y-81515407D01*
X100701156Y-81650582D01*
X100726097Y-81743663D01*
X100825965Y-81957830D01*
X100961505Y-82151401D01*
X101128599Y-82318495D01*
X101314160Y-82448426D01*
X101353024Y-82492743D01*
X101367035Y-82550000D01*
X101353024Y-82607257D01*
X101314158Y-82651575D01*
X101137200Y-82775483D01*
X101128595Y-82781508D01*
X100961505Y-82948598D01*
X100825965Y-83142170D01*
X100726097Y-83356336D01*
X100664936Y-83584592D01*
X100644340Y-83820000D01*
X100664936Y-84055407D01*
X100697307Y-84176215D01*
X100726097Y-84283663D01*
X100825965Y-84497830D01*
X100961505Y-84691401D01*
X101128599Y-84858495D01*
X101314160Y-84988426D01*
X101353024Y-85032743D01*
X101367035Y-85090000D01*
X101353024Y-85147257D01*
X101314159Y-85191575D01*
X101128595Y-85321508D01*
X100961505Y-85488598D01*
X100825965Y-85682170D01*
X100726097Y-85896336D01*
X100664936Y-86124592D01*
X100644340Y-86360000D01*
X100664936Y-86595407D01*
X100707289Y-86753469D01*
X100726097Y-86823663D01*
X100825965Y-87037830D01*
X100961505Y-87231401D01*
X101128599Y-87398495D01*
X101314160Y-87528426D01*
X101353024Y-87572743D01*
X101367035Y-87630000D01*
X101353024Y-87687257D01*
X101314158Y-87731575D01*
X101206134Y-87807215D01*
X101128595Y-87861508D01*
X100961505Y-88028598D01*
X100825965Y-88222170D01*
X100726097Y-88436336D01*
X100664936Y-88664592D01*
X100644340Y-88899999D01*
X100000500Y-88899999D01*
X100000500Y-50124500D01*
X100017113Y-50062500D01*
X100062500Y-50017113D01*
X100124500Y-50000500D01*
X149875500Y-50000500D01*
X149937500Y-50017113D01*
G37*
%TD.AperFunction*%
%TD*%
D22*
X100000000Y-50000000D02*
X150000000Y-50000000D01*
X150000000Y-100000000D01*
X100000000Y-100000000D01*
X100000000Y-50000000D01*
M02*
