M48
; DRILL file {KiCad 7.0.1} date Sun Apr 23 17:26:50 2023
; FORMAT={-:-/ absolute / inch / decimal}
; #@! TF.CreationDate,2023-04-23T17:26:50-05:00
; #@! TF.GenerationSoftware,Kicad,Pcbnew,7.0.1
; #@! TF.FileFunction,Plated,1,2,PTH
FMAT,2
INCH
; #@! TA.AperFunction,Plated,PTH,ViaDrill
T1C0.0157
; #@! TA.AperFunction,Plated,PTH,ComponentDrill
T2C0.0295
; #@! TA.AperFunction,Plated,PTH,ComponentDrill
T3C0.0315
; #@! TA.AperFunction,Plated,PTH,ComponentDrill
T4C0.0354
; #@! TA.AperFunction,Plated,PTH,ComponentDrill
T5C0.0394
%
G90
G05
T1
X4.3798Y-3.2798
X4.6798Y-3.1798
X4.7Y-2.3
X4.7Y-3.0
X4.7Y-3.4
X4.7202Y-3.2202
X4.9Y-3.6
X5.0Y-2.8
X5.1Y-3.3
X5.1559Y-2.9529
X5.1702Y-3.2298
X5.2Y-2.7
X5.2Y-3.2
X5.2Y-3.4715
X5.3285Y-2.9
X5.4Y-2.9031
X5.4Y-3.8
X5.5Y-3.3285
X5.5Y-3.6
X5.6Y-2.6
X5.7557Y-2.1
X5.8Y-3.7
T2
X5.7Y-2.1
X5.75Y-2.1
X5.8Y-2.1
T3
X4.1031Y-2.3
X4.3Y-2.3
X4.3Y-2.5
X4.3Y-2.7
X4.3Y-2.9
X4.3Y-3.1
X4.3Y-3.3
X4.4031Y-2.3
X4.6Y-2.3
X4.6Y-2.5
X4.6Y-2.7
X4.6Y-2.9
X4.6Y-3.1
X4.6Y-3.3
X4.6Y-3.5016
X4.6Y-3.6
X4.8Y-2.4
X4.8Y-2.5
X4.8Y-2.6
X4.8Y-2.7
X4.8Y-2.8
X4.8Y-2.9
X4.8Y-3.0
X4.8Y-3.1
X4.8Y-3.2
X4.8Y-3.3
X4.8Y-3.4
X4.8Y-3.5
X4.8Y-3.6
X4.8Y-3.7
X5.1Y-2.4
X5.1Y-2.5
X5.1Y-2.6
X5.1Y-2.7
X5.1Y-2.8
X5.1Y-2.9
X5.1Y-3.0
X5.1Y-3.1
X5.1Y-3.2
X5.1Y-3.3
X5.1Y-3.4
X5.1Y-3.5
X5.1Y-3.6
X5.1Y-3.7
X5.3016Y-3.8
X5.3031Y-3.6
X5.4Y-2.9031
X5.4Y-3.1
X5.4Y-3.8
X5.5Y-3.6
T4
X5.3Y-3.3
X5.3Y-3.4
X5.4Y-2.6
X5.4Y-2.7
X5.6Y-3.3
X5.6Y-3.4
T5
X4.0157Y-2.5
X4.0157Y-2.6
X4.0157Y-2.7
X4.0157Y-2.8
X4.0157Y-2.9
X4.0157Y-3.0
X4.0157Y-3.1
X4.0157Y-3.2
X4.0157Y-3.3
X4.0157Y-3.4
X4.0157Y-3.5
X4.0157Y-3.6
X4.1Y-2.1
X4.2Y-2.1
X4.2Y-3.6
X4.2Y-3.8
X4.4Y-2.1
X4.4Y-3.6
X4.4Y-3.8
X4.5Y-2.1
X4.6Y-2.1
X4.7Y-2.1
X4.8Y-2.1
X4.9Y-2.1
X5.2031Y-2.1
X5.3016Y-2.1
X5.4Y-2.1
X5.8Y-2.6
X5.8Y-2.7
X5.8Y-2.8
X5.8Y-2.9
X5.8Y-3.0
X5.8Y-3.1
X5.8Y-3.2
X5.8Y-3.3
X5.8Y-3.4
X5.8Y-3.5
X5.8Y-3.6
X5.8Y-3.7
T0
M30
